<?xml version="1.0" standalone="no"?>
<!DOCTYPE svg PUBLIC "-//W3C//DTD SVG 20010904//EN"
 "http://www.w3.org/TR/2001/REC-SVG-20010904/DTD/svg10.dtd">
<svg version="1.0" xmlns="http://www.w3.org/2000/svg"
 width="1200.000000pt" height="1200.000000pt" viewBox="0 0 1200.000000 1200.000000"
 preserveAspectRatio="xMidYMid meet">
<metadata>
Created by potrace 1.14, written by Peter Selinger 2001-2017
</metadata>
<g transform="translate(0.000000,1200.000000) scale(0.100000,-0.100000)"
fill="#000000" stroke="none">
<path d="M11 11962 c8 -38 74 -240 152 -467 293 -850 663 -1538 1087 -2020
293 -333 809 -727 1242 -948 54 -27 98 -50 98 -51 0 -1 -160 -2 -356 -1 -196
0 -361 -3 -367 -7 -15 -9 27 -116 123 -313 210 -430 522 -786 945 -1081 250
-174 538 -326 970 -511 44 -19 81 -36 83 -38 2 -2 -157 -3 -353 -3 -195 0
-357 -1 -359 -3 -10 -10 118 -164 218 -265 123 -123 227 -208 358 -295 88 -58
127 -73 448 -172 116 -37 421 -112 760 -188 102 -22 238 -58 302 -80 64 -21
129 -41 145 -43 15 -3 34 -14 41 -23 7 -10 15 -16 17 -13 2 3 13 -3 24 -12 11
-9 22 -14 25 -11 3 4 6 1 6 -6 0 -7 5 -9 12 -5 7 4 8 3 4 -4 -4 -6 2 -17 14
-24 11 -7 20 -18 20 -25 0 -7 9 -17 20 -23 11 -6 20 -17 20 -25 0 -8 7 -15 16
-15 11 0 14 -6 9 -21 -5 -15 -4 -19 4 -15 6 4 16 -4 22 -18 7 -14 16 -23 22
-19 6 3 7 1 4 -5 -10 -15 3 -43 16 -35 5 3 7 1 3 -5 -3 -6 -2 -13 3 -17 5 -3
8 -14 6 -25 -2 -11 0 -20 5 -20 4 0 7 -13 6 -29 -1 -17 2 -28 6 -25 11 7 10
-4 -3 -28 -6 -11 -7 -18 -2 -15 4 3 8 -8 8 -24 1 -16 0 -29 -1 -29 -6 0 -84
79 -84 85 0 3 -16 22 -35 41 -20 19 -33 39 -30 45 4 5 -3 9 -14 9 -14 0 -19 5
-15 15 4 9 0 15 -10 15 -9 0 -16 6 -16 13 -1 18 -66 87 -75 79 -5 -4 -5 -2 -1
5 3 6 -1 18 -9 25 -9 7 -27 23 -40 36 -16 14 -25 18 -25 10 0 -8 -5 -6 -11 5
-5 9 -18 17 -28 17 -10 0 -21 3 -24 7 -7 6 -45 14 -84 17 -13 0 -23 5 -23 9 0
5 -5 5 -10 2 -6 -3 -10 -2 -10 3 0 5 -13 8 -30 7 -16 -1 -30 1 -30 4 0 4 -8 7
-17 8 -10 1 -31 5 -48 8 -16 3 -39 8 -50 10 -11 2 -20 4 -20 5 0 3 -41 12 -62
13 -13 0 -23 4 -23 7 0 5 -27 10 -67 13 -7 0 -13 3 -13 6 0 6 -26 11 -67 14
-7 0 -13 3 -13 7 0 3 -10 7 -22 7 -46 3 -68 7 -68 15 0 4 -7 4 -17 1 -9 -4
-14 -2 -11 3 3 5 -10 10 -29 11 -19 1 -40 6 -46 11 -7 4 -24 7 -39 6 -16 -2
-28 2 -28 8 0 5 -6 8 -14 5 -8 -3 -17 -3 -20 1 -4 3 -12 7 -19 8 -7 1 -25 5
-42 9 -16 4 -38 7 -47 7 -10 -1 -18 4 -18 10 0 5 -6 8 -12 5 -7 -2 -24 0 -38
6 -14 5 -38 11 -55 13 -16 2 -36 5 -42 6 -7 1 -13 5 -13 10 0 5 -4 7 -9 3 -5
-3 -13 -1 -16 5 -5 8 -11 8 -20 0 -9 -8 -17 -6 -29 5 -9 9 -20 14 -24 11 -5
-3 -20 1 -35 9 -17 9 -27 10 -27 3 0 -7 -4 -7 -12 -1 -11 9 -50 22 -83 28 -5
1 -12 3 -15 4 -8 4 -62 11 -90 11 -42 2 -64 -4 -77 -20 -6 -8 -15 -12 -19 -8
-3 4 -15 -4 -26 -17 -11 -14 -24 -25 -29 -25 -6 0 -17 -7 -26 -15 -8 -8 -20
-12 -26 -8 -8 4 -8 1 1 -9 10 -13 8 -17 -17 -28 -17 -7 -28 -17 -25 -25 3 -7
-2 -15 -11 -19 -9 -3 -13 -10 -10 -16 3 -5 -1 -10 -9 -10 -10 0 -13 -7 -11
-21 3 -12 2 -19 -2 -16 -10 10 -35 -46 -29 -66 3 -14 1 -16 -8 -8 -9 8 -13 7
-13 -2 -3 -44 -14 -92 -22 -95 -5 -2 -7 -10 -4 -19 3 -8 0 -19 -8 -24 -12 -8
-12 -10 0 -18 12 -8 12 -12 2 -25 -7 -9 -11 -27 -9 -41 3 -14 1 -25 -3 -25 -5
0 -5 -7 -2 -17 5 -12 3 -14 -7 -8 -10 6 -11 4 -4 -6 13 -21 14 -39 1 -39 -8 0
-7 -3 2 -9 9 -6 10 -10 2 -16 -9 -5 -9 -10 -1 -20 8 -10 8 -15 0 -20 -8 -5 -8
-10 0 -20 8 -10 8 -15 -1 -20 -8 -6 -7 -10 2 -16 11 -7 11 -9 -1 -9 -13 0 -13
-1 0 -10 13 -9 13 -10 0 -10 -13 0 -13 -1 0 -11 12 -8 12 -12 2 -16 -10 -4
-10 -8 -1 -19 9 -11 9 -17 0 -28 -9 -11 -9 -16 -1 -21 7 -4 10 -16 7 -26 -3
-10 -2 -21 3 -24 4 -2 6 -16 5 -30 -2 -14 1 -28 7 -31 6 -4 5 -10 -3 -15 -11
-7 -11 -9 -1 -9 7 0 10 -5 7 -10 -4 -6 -1 -18 7 -27 9 -12 9 -15 1 -9 -15 8
-7 -19 11 -43 9 -12 8 -13 -4 -6 -13 8 -13 7 -1 -8 7 -9 10 -17 6 -17 -4 0 -2
-7 5 -15 7 -8 9 -15 5 -15 -4 0 -3 -6 4 -13 8 -10 7 -17 -1 -25 -9 -9 -9 -12
1 -12 8 0 11 -6 7 -16 -3 -8 -2 -12 3 -9 5 3 12 1 16 -5 3 -5 2 -10 -4 -10 -5
0 -3 -14 6 -30 8 -17 13 -36 10 -43 -2 -6 2 -18 9 -25 7 -7 10 -20 7 -30 -3
-9 -2 -14 2 -9 9 7 35 -55 35 -84 0 -9 10 -24 23 -33 12 -9 16 -14 10 -11 -7
3 -13 1 -13 -4 0 -6 5 -11 11 -11 5 0 7 -5 4 -10 -3 -6 1 -13 10 -16 12 -5 13
-9 4 -21 -7 -8 -8 -13 -3 -11 5 2 11 -1 12 -7 2 -5 8 -15 14 -22 5 -7 7 -17 3
-23 -4 -6 -1 -9 7 -8 7 2 14 -7 16 -19 2 -13 8 -23 13 -23 5 0 9 -7 9 -16 0
-8 4 -13 9 -10 5 4 7 -2 4 -13 -3 -11 2 -21 11 -24 9 -4 16 -14 16 -23 0 -9 8
-23 18 -31 11 -10 12 -12 2 -8 -10 4 -9 2 3 -8 9 -8 17 -19 17 -26 0 -6 6 -14
14 -17 8 -3 13 -14 11 -25 -2 -10 1 -18 7 -16 5 1 15 -7 21 -18 7 -11 17 -23
22 -27 6 -5 4 -8 -5 -8 -8 -1 -4 -5 9 -11 14 -5 21 -15 18 -23 -3 -8 1 -17 9
-20 8 -3 14 -14 14 -25 0 -11 5 -23 10 -26 8 -5 7 -12 -2 -23 -11 -13 -11 -14
1 -8 10 7 12 3 6 -14 -5 -16 -4 -20 4 -15 8 4 7 -4 -2 -27 -8 -18 -13 -41 -11
-51 1 -10 -4 -21 -12 -24 -8 -3 -12 -8 -9 -12 2 -4 -2 -19 -10 -34 -7 -14 -11
-28 -7 -31 3 -3 1 -6 -5 -6 -9 0 -32 -48 -32 -66 0 -3 -7 -11 -17 -18 -9 -7
-14 -18 -11 -23 4 -6 0 -13 -8 -16 -8 -4 -12 -15 -10 -28 2 -12 2 -19 -2 -15
-3 3 -12 1 -20 -5 -11 -10 -11 -15 -1 -27 10 -12 10 -14 1 -9 -8 5 -15 -1 -19
-18 -3 -14 -10 -25 -16 -25 -5 0 -6 -4 -3 -10 3 -5 -2 -10 -12 -11 -11 0 -13
-3 -5 -6 9 -3 7 -12 -8 -33 -15 -21 -17 -30 -8 -33 10 -4 10 -6 1 -6 -7 -1
-13 -13 -13 -27 0 -16 4 -23 11 -18 8 4 8 0 0 -15 -10 -17 -9 -22 4 -28 13 -5
14 -7 3 -14 -10 -7 -10 -9 2 -9 13 0 13 -1 0 -10 -11 -7 -11 -10 -2 -10 7 0
10 -5 6 -11 -3 -6 0 -15 7 -20 10 -6 11 -9 2 -9 -7 0 -13 -5 -13 -11 0 -5 4
-8 8 -5 5 3 10 -9 11 -27 4 -55 4 -57 14 -57 5 0 4 -7 -3 -15 -7 -9 -8 -15 -2
-15 5 0 9 -14 8 -31 -1 -19 3 -33 12 -36 11 -5 11 -7 0 -14 -7 -5 -8 -9 -3 -9
10 0 16 -26 18 -77 1 -13 5 -23 9 -23 4 0 8 -16 8 -36 0 -25 3 -33 13 -28 7 5
7 1 -2 -10 -10 -11 -11 -20 -5 -24 13 -9 27 -45 15 -37 -5 3 -13 1 -16 -5 -4
-6 -1 -9 7 -8 7 2 13 -6 14 -17 1 -11 5 -28 9 -37 4 -10 4 -25 1 -34 -3 -8 -2
-13 3 -10 14 9 21 -20 9 -32 -8 -8 -7 -13 3 -17 10 -4 14 -19 13 -45 0 -22 2
-40 7 -40 4 0 7 -10 7 -22 0 -13 2 -32 5 -43 2 -11 -1 -23 -7 -27 -7 -5 -4 -8
7 -8 20 0 22 -11 4 -29 -10 -11 -9 -12 2 -6 11 6 13 4 8 -8 -4 -10 -1 -17 6
-18 7 0 3 -4 -8 -9 -15 -7 -16 -9 -4 -9 11 -1 15 -9 14 -25 -2 -13 1 -29 5
-36 5 -7 4 -24 -1 -37 -5 -13 -5 -22 -1 -19 5 3 9 -29 10 -71 1 -41 5 -79 8
-84 3 -5 2 -9 -3 -9 -10 0 -9 -52 1 -68 4 -7 2 -12 -4 -12 -7 0 -10 -6 -7 -14
3 -8 3 -17 0 -20 -4 -4 -8 -25 -11 -48 -2 -24 -9 -46 -15 -50 -8 -5 -7 -8 3
-8 13 0 13 -2 1 -9 -11 -7 -6 -18 27 -51 23 -24 39 -47 36 -51 -3 -5 1 -9 9
-9 8 0 22 -16 31 -35 10 -21 22 -33 28 -29 6 4 8 3 4 -4 -3 -6 2 -17 11 -24
10 -7 20 -22 21 -33 2 -11 8 -22 13 -23 5 -2 9 -10 9 -18 0 -8 5 -14 10 -14 6
0 10 -9 10 -21 0 -11 4 -17 10 -14 9 5 12 -8 9 -31 0 -4 3 -10 8 -13 15 -11
48 -54 36 -47 -19 11 -16 -2 7 -31 12 -15 20 -20 20 -12 0 9 3 10 8 3 6 -9 30
-22 52 -29 63 -19 90 -30 90 -36 0 -4 8 -6 17 -5 10 2 31 -5 48 -14 16 -9 36
-15 42 -13 7 3 13 0 13 -6 0 -6 6 -8 14 -5 8 3 17 0 21 -5 3 -6 11 -9 16 -6 5
4 9 2 9 -3 0 -5 6 -9 13 -10 24 -2 42 -8 76 -25 18 -9 37 -14 42 -11 5 3 9 0
9 -7 0 -8 5 -7 17 2 11 10 14 10 9 1 -4 -6 -2 -12 3 -12 6 0 11 9 11 20 0 11
-6 20 -12 20 -8 0 -9 3 -3 8 14 10 17 32 5 32 -7 0 -7 6 0 19 7 14 7 22 0 26
-8 5 -7 12 2 23 10 12 10 14 1 8 -14 -8 -14 -5 -16 72 0 23 -4 42 -8 42 -4 0
-10 7 -13 16 -3 8 -2 12 4 9 6 -3 10 -1 10 4 0 6 -5 11 -12 11 -6 0 -9 3 -5 6
3 4 -1 13 -9 21 -8 9 -13 21 -11 27 2 6 -21 35 -50 63 -29 29 -53 50 -53 47 0
-2 -6 1 -14 8 -8 7 -12 16 -9 20 2 5 -3 8 -12 8 -8 0 -20 10 -25 23 -5 12 -9
17 -9 10 -1 -17 -81 67 -82 87 -1 8 -2 26 -3 40 -1 14 -5 31 -9 38 -5 6 -6 12
-2 12 3 0 -2 15 -11 33 -16 31 -16 31 1 17 17 -14 17 -14 7 6 -6 12 -8 24 -5
28 3 3 1 6 -5 6 -6 0 -9 9 -7 20 2 11 0 20 -4 20 -4 0 -6 14 -5 30 1 17 -3 30
-9 30 -7 0 -5 5 3 10 12 8 12 10 1 10 -11 0 -11 3 0 17 12 14 12 16 -1 11 -12
-4 -15 3 -14 39 0 24 -3 46 -7 49 -4 2 -6 13 -4 24 2 11 0 20 -6 20 -5 0 -9 5
-9 11 0 5 4 8 9 4 5 -3 13 -1 16 5 4 6 1 9 -7 8 -8 -2 -13 6 -12 19 1 13 -2
23 -6 23 -3 0 -6 16 -5 35 0 19 -2 35 -6 35 -3 0 -5 16 -4 34 1 19 -2 33 -7
30 -4 -3 -8 2 -8 10 0 9 5 16 12 16 6 0 3 7 -8 15 -11 8 -14 14 -6 15 9 0 10
5 3 19 -6 10 -7 21 -4 25 3 3 0 6 -8 6 -11 0 -11 2 1 10 12 8 12 10 1 10 -8 0
-11 3 -8 7 4 3 1 13 -6 21 -10 13 -9 14 3 7 13 -8 13 -7 1 8 -11 14 -11 17 0
17 12 0 12 2 0 9 -8 5 -11 16 -8 25 4 9 2 16 -3 16 -5 0 -7 9 -5 20 2 11 0 20
-4 20 -5 0 -7 14 -5 30 2 19 -1 30 -9 30 -8 0 -7 4 3 10 8 5 10 10 5 10 -6 0
-12 16 -13 36 -2 20 -6 44 -10 53 -5 9 -8 33 -7 54 0 20 -4 37 -9 37 -4 0 -6
9 -3 20 3 11 1 20 -4 20 -5 0 -9 5 -9 11 0 5 5 7 11 4 7 -5 8 -1 1 11 -19 38
-31 84 -20 78 7 -5 8 -2 2 7 -5 8 -9 22 -10 32 -1 9 -2 18 -4 20 -7 9 -6 37 1
37 6 0 7 6 3 13 -4 6 -4 9 1 5 4 -4 22 -1 40 7 19 7 36 11 39 7 3 -3 6 0 6 6
0 6 27 23 60 39 33 15 60 31 60 35 0 4 7 8 15 8 8 0 15 5 15 10 0 6 7 10 15
10 8 0 15 5 15 11 0 5 5 7 10 4 9 -6 14 8 11 28 -1 5 3 6 8 3 13 -8 42 4 35
15 -3 5 2 9 10 9 9 0 16 5 16 10 0 6 8 10 17 10 9 0 14 3 11 6 -8 7 36 54 51
54 6 0 10 6 9 13 -2 6 2 11 9 10 6 -2 15 6 18 17 4 11 11 18 16 15 5 -4 9 -1
9 5 0 12 15 32 48 63 13 12 20 28 17 36 -3 9 -3 12 1 9 8 -8 34 16 34 31 0 6
11 18 25 27 14 9 22 20 19 25 -5 9 4 22 41 61 12 13 14 18 5 14 -8 -4 -6 0 4
8 11 9 16 16 10 16 -5 0 0 7 10 15 11 8 16 15 10 15 -5 0 -1 7 9 14 10 8 18
16 17 18 -3 6 20 58 25 58 4 0 3 -5 -1 -12 -4 -7 -3 -8 4 -4 6 4 9 13 6 20 -3
7 2 20 10 29 8 8 12 17 9 21 -4 3 -1 6 5 6 7 0 12 6 12 14 0 7 7 19 16 27 8 7
13 21 11 31 -3 10 -2 16 1 14 4 -2 16 8 27 23 15 21 16 23 2 12 -15 -12 -17
-12 -11 2 3 8 12 18 20 21 9 3 12 10 9 16 -3 5 -1 10 5 10 6 0 9 4 6 9 -3 5 0
11 8 14 9 4 12 14 9 28 -4 13 -2 20 3 16 6 -3 11 4 11 15 1 11 10 27 20 35 10
8 12 12 6 8 -18 -9 -16 3 2 22 8 8 13 19 9 24 -3 5 2 12 10 15 9 3 16 10 16
16 0 5 -5 6 -11 2 -6 -3 -4 5 5 18 9 14 13 27 10 31 -3 3 2 4 13 3 10 -2 19
-8 19 -14 1 -7 2 -17 3 -23 0 -5 5 -7 11 -4 5 3 10 1 10 -5 0 -13 38 -68 63
-91 9 -9 17 -22 17 -28 0 -7 5 -9 10 -6 6 3 10 -1 10 -10 0 -9 9 -19 20 -22
11 -3 17 -9 14 -14 -3 -5 0 -9 6 -9 6 0 8 -5 4 -12 -4 -7 -3 -8 4 -4 6 3 16
-3 22 -14 6 -11 15 -18 21 -15 5 4 9 -3 9 -15 0 -12 4 -19 9 -15 5 3 16 -4 24
-15 7 -11 17 -17 20 -13 4 3 7 -1 7 -11 0 -9 4 -15 9 -11 5 3 13 -4 16 -16 6
-17 9 -19 16 -8 6 10 9 8 9 -10 0 -13 3 -21 6 -18 10 10 44 -12 44 -28 0 -8 7
-15 15 -15 8 0 24 -8 34 -18 35 -31 50 -42 58 -42 5 0 15 -9 23 -20 10 -14 16
-16 22 -7 5 8 8 6 8 -6 0 -10 5 -17 12 -15 6 2 20 -4 30 -14 10 -10 23 -16 29
-13 5 4 8 1 7 -5 -2 -7 5 -14 15 -15 10 -2 25 -12 33 -22 11 -14 13 -15 14 -3
1 12 3 12 14 -2 7 -10 21 -18 30 -18 9 0 16 -5 16 -10 0 -6 3 -9 8 -8 4 1 25
-7 47 -17 22 -10 42 -19 45 -19 47 -11 99 -30 95 -35 -2 -4 5 -13 15 -21 10
-8 17 -17 14 -22 -3 -4 0 -8 5 -8 6 0 11 -6 11 -13 0 -8 12 -25 27 -39 34 -32
73 -80 73 -91 0 -13 27 -37 34 -30 3 4 6 -2 6 -13 0 -11 9 -26 20 -34 11 -8
20 -20 20 -27 0 -7 5 -13 10 -13 6 0 10 -7 10 -16 0 -10 6 -14 14 -11 9 4 13
0 12 -11 -2 -9 5 -23 15 -30 11 -7 19 -20 19 -28 0 -8 4 -12 10 -9 5 3 10 0
10 -8 0 -8 12 -26 26 -41 15 -14 24 -26 20 -26 -4 0 -1 -6 6 -14 7 -8 16 -12
20 -10 4 3 5 -5 3 -17 -3 -15 0 -19 11 -15 8 3 13 2 10 -3 -3 -5 1 -14 9 -21
8 -7 15 -18 15 -24 0 -6 9 -18 20 -26 11 -8 20 -20 20 -27 0 -7 5 -13 10 -13
6 0 10 -7 10 -15 0 -8 5 -15 10 -15 6 0 10 -4 10 -10 0 -5 9 -19 20 -30 12
-12 19 -24 16 -29 -3 -4 4 -13 14 -21 10 -8 17 -17 14 -22 -3 -4 -1 -8 4 -8 5
0 14 -11 20 -25 7 -15 8 -25 2 -25 -6 0 -6 -9 0 -25 7 -18 6 -25 -3 -25 -6 0
-4 -5 7 -11 15 -9 16 -13 5 -20 -9 -5 -10 -9 -2 -9 6 0 9 -9 6 -20 -3 -12 0
-20 7 -20 7 0 10 -6 7 -14 -3 -7 0 -19 6 -25 6 -6 7 -11 2 -11 -4 0 0 -10 11
-22 13 -14 14 -19 4 -14 -9 4 -8 2 3 -7 9 -8 17 -21 17 -28 0 -8 9 -21 19 -29
11 -7 18 -17 15 -22 -3 -4 2 -11 10 -14 9 -3 16 -11 16 -18 0 -6 9 -18 20 -26
11 -8 20 -19 20 -24 0 -5 8 -15 18 -23 10 -8 11 -11 2 -7 -12 7 -13 5 -3 -8 7
-8 10 -18 6 -21 -3 -4 -2 -7 3 -7 5 0 11 -12 12 -27 1 -15 8 -30 15 -35 6 -4
8 -8 3 -8 -5 0 -2 -8 5 -17 12 -15 12 -16 -1 -8 -9 5 -7 -1 5 -15 11 -13 14
-20 6 -15 -8 5 -7 -2 4 -19 10 -15 15 -30 11 -33 -3 -4 4 -17 16 -30 21 -22
21 -24 3 -18 -17 6 -18 5 -5 -7 15 -13 22 -31 23 -55 0 -7 4 -13 9 -13 5 0 6
-5 3 -10 -3 -6 -1 -10 4 -10 6 0 11 -5 11 -11 0 -5 -6 -7 -12 -3 -7 4 -2 -5
11 -19 17 -19 20 -27 10 -27 -10 -1 -9 -5 5 -15 10 -8 16 -21 13 -29 -3 -8 1
-20 9 -27 9 -7 13 -21 11 -31 -3 -10 -1 -16 4 -12 5 3 10 -1 11 -8 0 -7 2 -18
2 -24 1 -6 8 -20 16 -30 13 -15 13 -16 1 -9 -9 5 -6 -4 7 -22 17 -23 19 -33 9
-43 -9 -9 -9 -11 0 -6 7 4 13 -2 15 -16 2 -13 9 -22 16 -20 10 2 10 -2 2 -18
-8 -16 -8 -22 3 -26 7 -2 14 -10 15 -17 4 -38 8 -53 19 -60 7 -4 9 -15 6 -24
-5 -12 -3 -14 7 -8 9 6 11 4 6 -4 -5 -7 0 -18 10 -27 18 -14 18 -14 0 -7 -18
6 -18 5 -2 -19 9 -13 13 -28 9 -31 -3 -4 -1 -7 4 -7 6 0 10 -11 9 -25 -2 -13
1 -22 5 -19 5 3 10 -5 11 -18 2 -30 4 -40 12 -59 4 -9 8 -29 10 -44 2 -15 9
-31 17 -36 10 -6 11 -9 1 -9 -10 0 -10 -5 -2 -20 6 -11 8 -25 5 -30 -3 -6 0
-10 7 -10 9 0 9 -3 -2 -10 -12 -8 -12 -10 5 -11 11 0 14 -3 7 -6 -10 -4 -10
-8 -1 -20 7 -8 13 -34 14 -57 1 -24 5 -49 10 -56 4 -7 2 -16 -6 -21 -8 -5 -9
-9 -4 -9 6 0 3 -6 -6 -13 -9 -7 -18 -16 -20 -22 -2 -5 -8 -9 -12 -7 -5 1 -6
-2 -2 -8 4 -6 1 -17 -5 -25 -7 -8 -9 -15 -4 -15 5 0 1 -5 -9 -11 -9 -6 -15
-14 -12 -20 4 -5 0 -12 -9 -15 -8 -3 -12 -12 -9 -20 3 -8 0 -14 -6 -14 -6 0
-8 -7 -5 -15 4 -8 1 -15 -5 -15 -6 0 -11 -7 -11 -15 0 -8 -6 -15 -12 -15 -9 0
-8 -3 2 -10 12 -8 12 -10 -2 -15 -10 -4 -14 -13 -11 -22 4 -10 2 -14 -4 -10
-6 4 -9 -8 -8 -28 0 -18 -2 -32 -6 -29 -4 2 -9 -5 -12 -16 -3 -11 0 -20 6 -20
7 0 6 -4 -2 -9 -8 -5 -11 -16 -8 -25 4 -9 2 -16 -4 -16 -6 0 -7 -5 -4 -10 4
-6 1 -18 -7 -27 -7 -9 -8 -14 -3 -11 6 4 10 -13 10 -44 1 -50 15 -71 42 -61 7
3 13 1 13 -4 0 -5 14 -10 32 -11 18 -2 35 -6 38 -11 3 -4 13 -7 23 -5 9 1 17
-1 17 -6 0 -5 11 -7 25 -5 14 1 25 -2 25 -6 0 -5 11 -9 25 -9 14 0 25 -5 25
-11 0 -8 6 -7 17 2 11 10 14 10 9 2 -4 -7 -2 -14 3 -14 6 -1 17 -2 24 -3 6 -1
33 19 58 46 26 26 50 44 55 40 5 -4 2 2 -6 12 -10 13 -10 17 -2 12 7 -4 12 -2
12 4 0 6 5 8 10 5 6 -3 10 -2 10 4 0 6 18 29 40 51 22 22 40 46 40 52 0 6 3 8
6 5 7 -7 37 28 47 56 3 9 3 17 -1 17 -5 0 -7 14 -6 30 1 17 -1 30 -5 30 -5 0
-8 14 -9 31 0 17 -7 38 -14 47 -11 13 -11 15 2 7 12 -7 13 -6 3 6 -10 12 -10
18 0 29 9 10 9 11 -1 6 -12 -7 -15 0 -15 37 0 9 -3 17 -8 17 -4 0 -7 15 -5 34
1 20 -2 34 -8 33 -6 -1 -10 10 -10 26 1 15 -2 27 -6 27 -5 0 -6 9 -3 20 3 11
1 20 -4 20 -5 0 -9 8 -10 18 -3 49 -7 78 -14 87 -5 6 -10 27 -12 47 -2 20 -9
43 -16 51 -9 12 -9 16 0 19 8 3 6 9 -5 21 -13 12 -14 17 -4 17 10 0 9 3 -2 10
-8 5 -11 10 -6 10 5 0 4 6 -2 13 -5 6 -8 24 -6 40 1 15 -1 25 -7 22 -5 -4 -9
10 -9 30 0 26 -3 34 -12 29 -8 -5 -7 0 2 11 8 10 10 16 3 12 -12 -7 -13 -2
-14 55 -1 17 -5 25 -12 21 -6 -4 -8 0 -4 10 3 10 3 17 -1 17 -5 0 -7 14 -6 30
1 17 -3 30 -9 30 -7 0 -12 16 -11 41 0 23 -5 47 -13 54 -17 17 -17 29 0 19 8
-5 8 -2 -2 9 -7 9 -10 17 -5 17 5 0 2 5 -6 10 -13 8 -13 10 -1 10 11 0 10 4
-5 16 -10 8 -12 12 -4 8 12 -6 13 -5 4 7 -6 8 -10 22 -9 32 2 10 -1 14 -8 10
-6 -4 -8 0 -4 10 3 10 2 17 -3 17 -5 0 -7 7 -4 15 4 8 1 22 -6 30 -10 12 -10
15 1 15 12 0 12 2 0 9 -7 5 -10 14 -7 20 4 6 2 11 -4 11 -7 0 -9 8 -5 20 3 11
2 20 -3 20 -6 0 -9 8 -7 17 1 10 -2 24 -8 30 -6 9 -5 13 4 13 10 1 9 5 -4 14
-12 10 -15 16 -7 21 7 4 8 11 2 18 -14 19 -25 70 -13 62 7 -3 8 0 5 9 -3 9 -9
16 -13 16 -4 0 -9 17 -10 38 -1 20 -2 51 -3 69 -1 18 -5 30 -10 27 -12 -8 -5
19 7 28 6 5 5 8 -4 8 -7 0 -11 6 -7 15 3 8 0 15 -7 15 -8 0 -8 3 2 9 9 6 10
11 2 15 -6 4 -11 12 -11 17 0 6 6 7 13 2 6 -4 4 6 -7 21 -10 16 -13 26 -8 22
6 -4 10 2 9 14 -1 11 -6 20 -12 20 -5 0 -3 5 5 10 8 5 10 10 4 10 -14 0 -14
30 0 30 6 0 4 5 -4 10 -13 8 -13 10 -1 10 11 0 10 4 -4 14 -18 13 -18 13 1 24
10 6 13 12 6 12 -6 0 -11 3 -11 7 1 5 1 23 0 41 -1 24 -5 31 -13 26 -9 -5 -9
-2 1 9 9 11 10 17 2 17 -6 0 -11 11 -11 25 0 14 -4 25 -10 25 -5 0 -10 9 -10
20 0 11 -4 20 -10 20 -5 0 -10 5 -10 11 0 6 -7 17 -16 26 -8 9 -12 23 -9 31 3
9 3 13 -1 9 -10 -9 -37 30 -29 43 3 6 -1 10 -10 10 -9 0 -13 5 -10 10 3 6 1
10 -5 10 -7 0 -9 8 -5 20 4 14 2 20 -6 18 -7 -2 -13 4 -14 12 -1 8 -6 14 -12
13 -6 -1 -9 6 -6 17 3 12 0 20 -7 20 -7 0 -10 7 -6 15 3 9 -1 18 -8 21 -8 3
-17 17 -21 32 -4 15 -12 30 -18 34 -6 3 -12 17 -14 29 -2 13 -8 26 -14 30 -6
3 -10 9 -10 13 3 23 0 36 -9 31 -9 -5 -15 23 -11 48 0 4 -4 7 -10 7 -5 0 -7 4
-4 10 3 5 1 10 -6 10 -7 0 -9 3 -6 7 4 3 -1 12 -11 20 -10 9 -11 11 -2 7 12
-7 13 -5 3 8 -7 8 -10 18 -6 21 3 4 1 7 -6 7 -8 0 -11 7 -7 15 3 9 0 15 -9 15
-8 0 -12 8 -10 19 2 11 -3 22 -11 25 -12 4 -12 10 -4 26 8 16 8 20 -2 18 -7
-2 -13 6 -13 17 -1 11 -6 19 -12 18 -6 -1 -9 6 -6 17 3 11 0 20 -6 20 -6 0
-11 9 -11 19 0 30 -11 52 -22 45 -6 -4 -8 2 -3 15 4 12 2 21 -4 21 -6 0 -7 7
-4 17 5 12 3 14 -7 8 -10 -6 -12 -4 -7 8 3 9 2 19 -4 22 -5 4 -7 11 -4 16 4 5
1 9 -5 9 -6 0 -8 5 -5 10 3 6 1 10 -4 10 -19 0 -12 39 9 50 11 6 20 7 20 3 0
-4 5 0 11 10 6 9 14 15 19 12 4 -3 10 2 14 10 3 8 12 15 20 15 7 0 17 7 20 16
3 8 10 13 15 9 6 -3 13 1 18 8 4 7 29 26 55 42 27 17 48 33 48 38 0 4 7 7 15
7 8 0 15 5 15 10 0 6 6 10 14 10 8 0 16 7 20 15 3 8 13 15 23 15 15 0 16 2 3
10 -13 8 -12 10 3 10 9 0 26 9 37 20 11 11 20 18 20 15 0 -3 13 8 30 25 16 16
34 30 40 30 5 0 10 7 10 16 0 8 5 12 10 9 6 -3 13 1 16 9 3 9 13 16 21 16 8 0
12 4 9 9 -3 4 6 13 20 20 15 7 22 16 18 23 -5 8 -2 9 9 5 9 -3 16 -3 14 2 -3
10 61 71 75 71 5 0 7 4 4 9 -3 5 1 11 9 15 8 3 17 1 20 -5 4 -5 11 -7 16 -4 5
4 9 -1 9 -9 0 -9 9 -21 20 -28 11 -7 20 -18 20 -25 0 -7 5 -13 11 -13 12 0 40
-26 34 -32 -2 -2 9 -12 26 -23 16 -11 29 -25 29 -31 0 -6 11 -17 25 -24 13 -7
22 -17 19 -22 -3 -4 0 -8 6 -8 6 0 8 -4 5 -10 -3 -5 1 -10 9 -10 8 0 22 -12
30 -27 8 -16 15 -25 16 -21 0 5 11 -2 25 -14 13 -11 22 -25 19 -30 -3 -4 2 -8
10 -8 8 0 18 -9 21 -20 4 -11 11 -17 17 -14 8 5 9 1 4 -12 -4 -10 -4 -16 -1
-12 9 9 55 -32 55 -49 0 -7 6 -13 13 -13 6 0 21 -14 32 -30 11 -16 26 -30 33
-30 7 0 10 -4 7 -10 -3 -5 3 -15 15 -22 11 -7 20 -19 20 -26 0 -9 6 -12 17 -8
10 4 14 4 11 0 -4 -3 3 -16 16 -28 18 -18 19 -19 1 -7 -11 8 4 -9 34 -37 29
-29 50 -52 45 -52 -4 0 7 -12 24 -26 18 -15 32 -33 32 -41 0 -8 4 -12 8 -9 5
3 14 -5 21 -17 15 -30 22 -69 10 -62 -5 4 -9 2 -9 -4 0 -5 5 -13 11 -17 8 -5
6 -10 -5 -16 -13 -7 -14 -13 -6 -23 13 -15 10 -46 -5 -58 -6 -4 -5 -10 4 -16
9 -6 10 -11 2 -15 -15 -10 -14 -29 1 -20 10 5 10 4 1 -6 -6 -7 -9 -19 -6 -28
4 -8 2 -13 -3 -10 -5 4 -9 -18 -8 -50 1 -32 -3 -63 -9 -69 -6 -9 -6 -13 1 -13
6 0 9 -7 6 -15 -4 -8 -11 -12 -17 -8 -6 4 -7 1 -2 -8 5 -7 9 -28 10 -46 0 -25
-3 -32 -14 -28 -11 4 -11 3 -2 -9 7 -9 9 -21 5 -28 -11 -17 -12 -48 -3 -54 5
-2 6 -11 3 -19 -4 -8 -11 -12 -18 -8 -8 5 -8 3 0 -8 7 -8 8 -23 4 -34 -4 -11
-5 -26 -2 -34 3 -7 -1 -17 -9 -22 -11 -6 -11 -9 -1 -9 10 0 10 -5 2 -20 -8
-15 -8 -20 2 -20 9 0 9 -3 -2 -10 -13 -9 -13 -10 0 -10 13 0 13 -2 1 -9 -12
-8 -13 -12 -1 -25 11 -14 11 -16 -1 -11 -12 4 -14 -4 -13 -40 1 -28 -4 -51
-12 -60 -11 -10 -11 -14 -2 -17 10 -4 10 -10 0 -32 -7 -16 -17 -24 -24 -20 -7
4 -8 3 -4 -4 4 -8 -3 -16 -18 -22 -14 -5 -26 -14 -26 -20 0 -6 -4 -8 -10 -5
-6 3 -10 1 -10 -4 0 -6 -7 -11 -15 -11 -7 0 -19 -8 -24 -17 -6 -10 -11 -14
-11 -10 0 5 -13 -1 -29 -12 -16 -12 -34 -21 -40 -21 -6 0 -11 -4 -11 -9 0 -5
-14 -14 -30 -20 -17 -5 -33 -17 -36 -25 -3 -8 -14 -13 -25 -11 -10 2 -18 1
-18 -3 3 -17 -2 -32 -8 -31 -20 3 -24 -2 -13 -16 10 -12 10 -15 -1 -15 -12 0
-12 -2 0 -9 7 -5 13 -25 13 -45 0 -20 5 -36 12 -36 6 0 4 -5 -4 -10 -13 -9
-13 -10 0 -10 13 0 13 -1 0 -10 -8 -5 -10 -10 -5 -10 6 0 15 -11 21 -24 10
-21 9 -23 -5 -18 -14 5 -14 3 -3 -11 8 -9 11 -21 8 -26 -4 -5 -2 -13 4 -16 8
-5 7 -12 -2 -23 -10 -12 -10 -14 0 -8 7 4 12 1 12 -8 0 -9 6 -16 13 -16 9 0 9
-2 0 -8 -13 -8 -14 -52 -1 -52 4 0 5 -7 2 -15 -4 -9 0 -15 7 -15 11 0 11 -3
-1 -10 -9 -6 -11 -10 -3 -10 7 0 10 -7 7 -15 -4 -9 0 -15 7 -15 12 0 12 -2 0
-9 -11 -7 -11 -10 0 -17 18 -11 69 -12 69 -1 0 4 9 5 20 2 13 -4 20 -2 20 6 0
7 3 10 6 6 4 -3 21 0 39 8 19 7 36 11 39 7 3 -3 6 0 6 6 0 7 7 12 15 12 8 0
15 5 15 10 0 6 6 10 14 10 7 0 19 7 26 15 7 8 16 13 20 10 5 -3 11 4 15 15 3
11 13 20 21 20 8 0 14 8 14 18 0 14 2 15 10 2 7 -11 10 -12 10 -2 0 8 15 29
33 48 17 19 32 39 32 44 0 5 9 18 20 29 28 28 39 44 43 61 2 8 7 17 11 20 9 6
25 42 23 53 -1 4 2 7 7 7 5 0 12 7 15 16 4 10 2 13 -7 9 -6 -4 -5 -1 4 7 9 7
14 19 12 26 -3 6 0 12 5 12 6 0 9 8 8 18 -2 9 2 20 8 25 8 5 6 10 -4 17 -10 6
-11 10 -2 10 6 0 12 7 12 16 0 9 -5 13 -12 9 -7 -4 -5 0 5 8 14 11 15 16 5 20
-9 4 -9 6 -1 6 7 1 10 11 7 27 -3 19 -1 24 8 18 10 -6 9 -3 -1 9 -8 11 -9 17
-3 17 6 0 9 6 6 14 -3 8 -1 24 6 35 7 13 7 21 1 21 -6 0 -8 7 -5 15 4 8 11 12
18 8 6 -3 3 3 -7 14 -19 22 -8 41 16 27 9 -6 9 -4 1 7 -14 18 -14 49 0 49 6 0
4 5 -4 10 -8 5 -10 10 -5 10 6 0 11 21 13 47 1 26 8 51 15 55 7 5 8 8 1 8 -6
0 -11 7 -11 15 0 8 5 12 10 8 5 -3 6 3 2 16 -3 11 -2 21 3 21 6 0 8 9 5 20 -3
11 1 28 8 37 10 12 10 14 2 9 -7 -4 -13 -3 -13 3 0 5 4 12 9 16 6 3 8 14 6 25
-2 11 0 22 6 25 5 4 7 18 4 33 -2 15 1 30 8 34 9 6 8 10 -3 18 -11 7 -11 10
-2 10 7 0 11 4 8 9 -4 5 0 12 6 14 10 4 10 6 -1 6 -10 1 -10 7 4 27 9 15 12
23 6 20 -6 -4 -11 -3 -11 3 0 5 4 12 9 15 5 3 8 20 7 37 -1 17 3 38 10 47 9
12 9 21 2 29 -7 9 -7 13 0 13 5 0 13 7 16 16 3 8 2 12 -4 9 -6 -3 -10 -1 -10
4 0 6 4 11 8 11 5 0 8 16 7 35 -1 19 2 35 6 35 4 0 6 9 4 20 -2 11 0 22 5 25
9 6 6 37 -6 57 -4 7 -3 8 4 4 7 -4 12 -1 12 9 0 9 -4 13 -10 10 -6 -3 -7 1 -4
9 3 9 1 16 -5 16 -6 0 -8 6 -5 14 3 8 0 17 -5 21 -6 3 -9 11 -6 16 4 5 1 9 -4
9 -6 0 -11 8 -11 19 0 10 -6 24 -14 31 -8 6 -12 19 -9 27 4 11 2 14 -5 9 -8
-5 -12 0 -12 13 0 11 -4 22 -8 25 -4 3 -14 28 -22 55 -9 36 -16 47 -23 39 -6
-9 -7 -6 -4 9 3 13 1 23 -5 23 -6 0 -7 7 -4 15 3 9 -1 18 -9 21 -8 4 -12 10
-9 15 3 5 0 9 -5 9 -6 0 -11 5 -11 11 0 5 6 7 13 3 13 -9 -11 26 -28 38 -6 5
-4 8 4 8 9 0 7 6 -8 19 -14 12 -18 22 -11 26 6 4 2 14 -12 26 -17 15 -19 22
-10 26 10 4 8 9 -7 20 -12 8 -19 19 -15 24 3 5 -2 21 -11 36 -12 18 -13 23 -4
18 8 -3 5 1 -5 9 -14 11 -15 16 -6 16 9 0 8 5 -6 16 -10 8 -13 12 -5 9 9 -6 9
-1 -3 17 -9 14 -13 28 -9 31 3 4 1 7 -6 7 -7 0 -9 5 -6 10 3 6 2 10 -4 10 -5
0 -8 11 -6 25 1 14 0 23 -3 20 -7 -7 -32 43 -32 64 0 9 -6 23 -12 30 -11 11
-10 12 2 6 11 -6 10 -3 -3 12 -9 11 -14 23 -10 26 3 4 1 7 -6 7 -9 0 -9 5 0
21 8 15 8 19 0 15 -6 -4 -11 -2 -11 4 0 6 -5 8 -12 4 -9 -5 -9 -2 1 9 12 15 9
21 -10 19 -3 0 -4 13 -3 29 1 16 -2 29 -7 29 -5 0 -9 9 -9 20 0 11 -5 20 -10
20 -7 0 -7 7 0 20 8 16 8 20 -2 18 -8 -2 -12 4 -10 14 2 10 -2 18 -7 18 -6 0
-8 6 -5 14 3 8 1 17 -5 20 -6 4 -8 13 -4 21 3 8 0 15 -6 15 -6 0 -11 10 -11
23 0 13 -6 29 -12 36 -11 11 -10 12 1 6 9 -5 8 0 -3 17 -10 15 -14 33 -10 43
6 14 4 16 -6 10 -10 -6 -12 -4 -7 8 3 10 2 17 -3 17 -5 0 -6 7 -3 17 4 11 3
14 -5 9 -7 -4 -12 -2 -12 3 0 6 6 11 13 11 8 0 9 2 1 8 -6 4 -15 23 -20 42 -4
19 -9 38 -10 43 -1 4 -2 14 -3 23 -1 9 -6 12 -14 8 -8 -5 -8 -2 2 9 10 13 10
17 1 17 -7 0 -10 7 -6 15 3 8 0 15 -7 15 -8 0 -8 3 2 9 10 7 10 10 1 13 -11 3
-20 37 -23 85 0 7 -5 14 -11 16 -6 3 -11 21 -10 41 1 20 -2 36 -6 36 -5 0 -7
9 -5 20 2 11 -3 27 -11 35 -10 10 -11 15 -3 15 8 0 8 5 -2 17 -12 15 -12 16 1
8 13 -8 13 -6 1 8 -7 9 -11 23 -8 32 4 8 2 17 -4 20 -5 4 -7 11 -4 16 4 5 1 9
-4 9 -6 0 -11 10 -11 23 0 53 -5 77 -14 77 -6 0 -4 5 4 10 10 6 11 10 3 10 -7
0 -13 9 -13 21 0 13 -4 18 -12 13 -10 -6 -10 -5 -1 7 10 12 8 22 -8 48 -11 19
-18 40 -15 48 3 8 2 12 -2 10 -7 -4 -42 28 -42 38 0 3 0 10 0 17 0 6 -3 8 -7
5 -3 -4 -11 3 -17 15 -6 13 -23 28 -36 35 -14 7 -21 13 -15 13 5 0 -1 7 -13
16 -12 8 -19 21 -16 27 4 7 4 9 0 5 -8 -7 -76 57 -76 72 0 6 -5 10 -11 10 -5
0 -7 4 -4 10 3 6 -1 7 -9 4 -11 -4 -16 0 -16 10 0 9 -4 16 -10 16 -5 0 -10 7
-10 16 0 8 -4 12 -10 9 -5 -3 -10 1 -10 9 0 8 -10 18 -21 21 -17 6 -19 9 -8
16 12 7 11 9 -1 10 -8 1 -18 1 -22 0 -5 0 -8 8 -8 19 0 11 -7 20 -16 20 -8 0
-13 4 -10 9 3 5 -1 12 -10 15 -9 4 -14 9 -11 12 7 7 -29 44 -43 44 -5 0 -10 5
-10 11 0 5 6 7 13 3 8 -5 8 -3 -2 9 -7 9 -17 15 -21 12 -4 -3 -11 2 -14 11 -4
10 -2 13 7 9 6 -4 1 3 -12 14 -13 12 -20 21 -15 21 4 0 -1 7 -12 16 -10 8 -12
12 -4 8 13 -7 13 -6 0 10 -8 10 -15 25 -17 34 -1 9 -7 18 -12 20 -8 3 -8 10 0
23 5 11 6 19 2 18 -20 -3 -27 2 -13 11 11 7 11 10 2 10 -7 0 -10 4 -7 10 3 5
1 19 -6 31 -6 12 -7 19 -2 16 5 -3 9 3 9 13 0 10 -5 16 -10 13 -5 -4 -7 3 -4
15 4 13 1 22 -5 22 -8 0 -7 3 1 9 11 6 10 11 -3 25 -9 9 -12 16 -6 16 7 0 7 8
1 25 -7 18 -6 25 3 25 8 0 9 2 1 8 -6 4 -10 16 -8 27 2 10 -2 25 -8 32 -7 9
-7 13 1 13 8 0 9 5 2 18 -5 10 -9 34 -9 53 0 18 -1 36 -2 39 -7 20 -6 57 4 69
9 12 8 14 -4 9 -12 -5 -15 6 -14 63 1 45 -3 69 -10 69 -6 0 -4 5 4 10 12 8 12
10 1 10 -10 0 -11 3 -2 14 9 11 9 16 0 21 -8 6 -7 10 2 16 11 7 10 9 -4 9 -11
0 -15 5 -11 11 4 8 1 8 -13 1 -12 -7 -25 -7 -36 -1 -12 7 -17 6 -17 -3 0 -11
-2 -11 -9 0 -4 7 -12 12 -17 10 -5 -1 -19 3 -30 10 -12 6 -24 9 -27 5 -4 -3
-9 2 -13 11 -3 9 -12 16 -20 16 -12 0 -18 12 -16 31 1 4 -9 5 -21 2 -16 -3
-18 -2 -8 5 11 8 10 11 -7 16 -11 4 -23 14 -26 22 -3 8 -11 12 -16 9 -6 -4
-10 -3 -9 2 4 21 -2 33 -16 33 -8 0 -15 4 -15 9 0 13 -59 71 -73 71 -8 0 -7 4
3 10 10 6 11 10 3 10 -19 0 -53 32 -53 50 0 13 -1 13 -10 0 -8 -12 -10 -12
-10 -1 0 8 -8 20 -17 28 -12 10 -13 12 -3 8 8 -4 6 1 -4 9 -11 9 -23 16 -28
16 -4 0 -8 7 -8 16 0 8 -4 12 -10 9 -6 -3 -10 -1 -10 5 0 15 -46 60 -54 53 -3
-4 -6 3 -6 15 0 12 -6 21 -12 20 -7 -2 -12 3 -10 10 1 8 -2 11 -8 7 -6 -3 -14
4 -19 17 -4 13 -11 22 -15 21 -15 -7 -20 -2 -6 7 12 8 11 10 -6 10 -12 0 -28
8 -35 18 -13 16 -13 16 6 2 19 -14 19 -14 6 3 -7 9 -20 17 -27 17 -13 0 -18
12 -15 33 0 4 -3 6 -8 5 -10 -3 -51 40 -51 54 0 4 -3 7 -7 7 -21 -3 -33 3 -33
16 0 17 -40 65 -41 49 0 -5 -4 1 -10 14 -5 13 -13 20 -19 17 -6 -4 -9 -1 -8 7
2 7 -3 12 -9 10 -7 -1 -13 5 -13 13 0 8 -5 15 -11 15 -5 0 -7 5 -4 10 3 6 1
10 -6 10 -7 0 -9 3 -6 7 4 3 2 12 -3 19 -6 6 -10 16 -9 20 4 23 -2 35 -13 28
-9 -5 -9 -2 1 9 11 14 11 17 0 17 -11 0 -11 2 1 10 13 9 13 10 0 10 -13 0 -13
1 0 10 9 6 10 10 3 10 -7 0 -10 10 -7 26 3 18 1 23 -7 18 -8 -4 -9 -3 -5 5 4
6 3 18 -4 26 -8 10 -8 15 1 21 8 5 9 3 4 -6 -5 -9 -4 -11 4 -6 7 5 9 12 3 19
-5 7 -8 22 -7 35 1 12 -2 22 -6 22 -9 0 -6 26 4 36 4 4 -1 16 -10 27 -10 11
-12 17 -5 13 7 -4 12 -1 12 9 0 9 -4 14 -8 11 -4 -2 -8 4 -8 14 0 10 4 16 9
13 7 -4 3 28 -9 65 -2 6 4 12 14 12 14 0 15 2 2 10 -10 6 -14 21 -12 42 5 46
15 52 39 24 12 -13 18 -27 15 -31 -4 -4 -2 -6 3 -5 25 5 37 -1 31 -16 -3 -8
-2 -13 2 -11 4 3 13 -1 20 -9 7 -8 10 -14 7 -14 -3 0 5 -12 19 -27 20 -22 23
-30 13 -42 -9 -12 -9 -13 1 -7 8 4 13 1 14 -11 1 -18 4 -34 8 -43 7 -19 3 -90
-5 -90 -5 0 -2 -5 8 -11 18 -10 18 -11 0 -32 -10 -11 -13 -17 -7 -14 7 4 15 0
18 -9 3 -8 2 -12 -4 -9 -6 3 -10 2 -10 -4 0 -5 5 -13 10 -16 6 -4 8 -11 5 -16
-4 -5 -2 -9 4 -9 6 0 8 -6 5 -14 -3 -7 2 -16 12 -20 13 -5 14 -9 5 -20 -10
-11 -8 -16 8 -21 12 -3 21 -11 21 -17 0 -5 14 -23 31 -39 17 -16 27 -29 23
-29 -5 0 3 -8 19 -18 15 -10 24 -22 20 -25 -3 -4 2 -7 13 -7 16 0 17 -2 4 -10
-13 -8 -13 -10 -1 -10 20 0 82 -70 74 -84 -3 -6 -3 -8 1 -4 11 9 46 -23 39
-35 -3 -6 -2 -8 3 -5 11 6 55 -37 47 -46 -4 -3 1 -6 10 -6 10 0 16 -4 15 -9
-2 -5 14 -25 34 -45 20 -20 35 -36 31 -36 -3 0 9 -13 26 -29 17 -16 31 -36 31
-46 0 -9 4 -14 8 -11 10 6 43 -30 35 -38 -4 -3 2 -6 12 -6 10 0 16 -3 12 -6
-9 -9 25 -44 36 -37 6 4 8 0 5 -9 -6 -15 23 -48 42 -48 6 0 10 -7 10 -17 0 -9
3 -14 6 -10 3 3 15 -3 27 -14 11 -10 27 -19 34 -19 7 0 13 -4 13 -8 0 -4 8 -9
18 -10 34 -4 51 -8 58 -15 4 -3 15 -2 25 4 13 7 19 6 19 -1 0 -7 5 -8 12 -3 7
4 24 9 38 9 14 1 26 3 28 4 1 1 10 3 20 4 9 1 23 5 30 9 6 5 12 4 12 -1 0 -9
86 -9 96 1 3 3 12 3 20 0 8 -3 14 1 14 8 0 12 2 12 9 0 7 -11 12 -8 26 12 9
14 14 31 10 37 -3 5 -1 10 5 10 6 0 8 5 5 10 -3 6 -1 10 6 10 8 0 7 5 -2 17
-12 14 -12 16 0 8 11 -6 13 -4 8 8 -3 10 -2 17 4 17 6 0 7 5 4 10 -3 6 2 10
12 11 16 0 16 1 -2 9 -12 5 -14 9 -6 9 8 1 11 4 8 7 -3 4 0 16 8 28 8 11 15
28 15 38 0 10 4 18 9 18 6 0 8 9 6 19 -2 11 3 22 12 25 12 5 13 9 3 21 -7 8
-8 15 -3 15 12 0 11 30 -2 49 -6 10 -4 12 4 6 9 -5 12 2 10 26 -2 19 -7 40
-12 47 -6 8 -5 12 2 12 8 0 7 6 -3 16 -9 8 -14 20 -11 25 4 5 1 9 -5 9 -6 0
-9 4 -5 9 3 6 -3 14 -12 20 -14 8 -15 10 -3 11 9 0 11 3 5 8 -10 7 -12 19 -17
100 -1 23 -5 42 -9 42 -4 0 -10 7 -13 16 -5 14 -4 15 9 4 14 -11 14 -10 6 14
-6 14 -8 26 -5 26 2 0 0 9 -6 20 -8 14 -8 20 0 20 8 0 8 6 0 20 -6 11 -7 20
-3 20 4 0 1 5 -7 10 -12 8 -12 10 -1 10 11 0 11 3 0 17 -12 15 -12 16 1 8 12
-7 13 -6 3 6 -10 12 -10 18 0 29 6 7 7 10 1 7 -7 -4 -11 9 -12 35 -1 22 -8 48
-14 56 -8 10 -9 13 -2 9 14 -8 14 44 1 54 -5 4 -4 15 2 26 5 11 7 23 4 27 -8
8 -13 43 -13 105 0 25 -6 52 -13 60 -9 12 -9 13 1 7 6 -4 12 -3 12 3 0 5 -5
13 -10 16 -8 5 -8 11 0 20 8 10 7 14 -2 18 -10 4 -10 6 0 6 6 1 12 10 12 22 0
13 -4 18 -12 13 -9 -5 -9 -2 1 9 11 14 11 20 0 34 -10 11 -10 14 -1 9 9 -5 12
4 12 34 0 23 4 39 9 36 12 -8 8 27 -4 36 -6 5 -5 8 3 8 7 0 10 5 7 10 -3 6 -2
10 4 10 6 0 8 6 5 13 -3 8 2 20 11 27 12 10 13 16 4 26 -9 11 -8 14 0 14 7 0
9 5 6 10 -3 6 1 13 10 16 12 5 13 9 4 20 -10 12 -9 13 5 8 12 -5 15 -2 10 10
-3 9 -2 16 3 16 5 0 10 6 11 13 0 6 3 22 6 35 2 12 0 22 -5 22 -6 0 -8 4 -5 9
3 5 -1 11 -9 15 -8 3 -15 14 -15 25 0 11 -5 23 -10 26 -6 4 -8 11 -4 16 3 5 0
8 -8 7 -7 -2 -14 7 -16 20 -2 12 -9 22 -17 22 -7 0 -16 7 -19 16 -5 12 -3 14
7 8 7 -5 5 -2 -5 8 -10 9 -15 23 -12 32 5 12 2 15 -12 9 -12 -4 -15 -3 -10 5
4 7 2 12 -3 12 -6 0 -11 5 -11 11 0 7 -8 19 -17 28 -18 16 -25 33 -26 58 0 7
-3 11 -5 8 -8 -8 -32 16 -32 32 0 19 -25 44 -35 35 -5 -4 -5 1 -2 11 4 11 1
20 -9 24 -13 5 -13 7 -2 14 10 7 9 9 -5 9 -9 0 -16 6 -15 13 2 6 -4 11 -12 9
-8 -2 -12 0 -7 4 4 4 0 16 -10 26 -9 10 -13 18 -9 18 4 0 1 7 -6 15 -23 25
-33 40 -36 55 -2 7 -10 19 -19 25 -9 7 -13 17 -9 23 4 7 3 12 -2 12 -14 0 -10
29 5 34 7 3 13 14 13 24 0 10 5 23 11 29 17 17 22 73 7 73 -9 0 -9 3 2 10 11
7 11 10 2 10 -7 0 -10 4 -7 10 3 5 -1 20 -10 33 -8 13 -12 27 -8 30 3 4 1 7
-5 7 -7 0 -12 9 -12 20 0 11 -5 20 -11 20 -8 0 -7 6 2 17 10 11 10 14 2 9 -8
-4 -13 -1 -13 8 0 9 -4 16 -10 16 -5 0 -7 6 -4 14 3 7 -2 16 -11 20 -9 3 -14
10 -10 15 3 5 1 12 -4 16 -5 3 -8 14 -6 25 2 12 0 18 -6 15 -8 -6 -13 8 -10
28 0 4 -3 7 -8 7 -5 0 -12 7 -15 16 -4 10 -2 13 7 8 6 -4 2 4 -11 18 -12 13
-19 27 -16 31 3 3 -3 5 -14 4 -13 -1 -19 -7 -17 -18 2 -11 -1 -16 -9 -13 -11
4 -28 -27 -25 -45 1 -2 -7 -9 -16 -14 -14 -8 -15 -11 -4 -18 10 -6 11 -9 2 -9
-7 0 -13 -7 -13 -16 0 -8 -4 -13 -9 -10 -4 3 -7 -6 -5 -19 1 -14 -1 -25 -5
-25 -4 0 -7 -18 -6 -39 1 -24 -3 -38 -8 -34 -6 4 -8 -3 -5 -15 4 -12 2 -22 -3
-22 -6 0 -6 -7 0 -19 6 -10 8 -21 4 -24 -10 -11 -9 -167 2 -171 6 -2 -6 -8
-25 -13 -24 -7 -37 -6 -42 1 -5 7 -8 7 -8 1 0 -5 -24 -10 -52 -9 -29 0 -59 -4
-65 -9 -8 -5 -13 -6 -13 0 0 5 -11 9 -25 9 -14 0 -25 -4 -25 -8 0 -5 -8 -4
-18 1 -11 6 -24 6 -35 0 -12 -7 -17 -6 -17 3 0 8 -3 9 -8 3 -12 -16 -32 -16
-32 1 0 8 -4 12 -10 9 -13 -8 -13 1 0 26 6 10 7 19 2 19 -9 0 -12 21 -13 73 0
9 -4 17 -10 17 -11 0 -7 22 6 32 6 5 3 8 -6 8 -11 0 -15 8 -14 25 2 14 -1 25
-6 25 -6 0 -7 5 -4 10 4 6 1 18 -7 27 -9 12 -9 15 -1 9 9 -5 11 -2 7 8 -3 9
-11 16 -18 16 -6 0 -4 5 4 10 11 7 11 10 2 10 -7 0 -10 5 -7 10 3 6 2 10 -4
10 -5 0 -8 9 -6 20 3 14 -2 20 -13 20 -15 0 -15 2 -2 10 9 6 10 10 3 10 -6 0
-10 9 -8 20 2 11 0 20 -6 20 -5 0 -9 9 -9 20 0 11 -4 20 -10 20 -5 0 -10 7
-10 15 0 8 -6 15 -12 15 -9 0 -8 4 2 10 10 6 11 10 3 10 -7 0 -13 6 -13 14 0
8 -5 18 -12 22 -7 5 -9 2 -5 -9 4 -11 2 -14 -9 -10 -7 3 -14 0 -14 -7 0 -6 -4
-8 -10 -5 -6 3 -7 -1 -4 -9 3 -9 1 -16 -6 -16 -6 0 -9 -4 -5 -9 3 -5 1 -12 -5
-16 -6 -4 -8 -10 -5 -15 3 -4 -2 -10 -10 -14 -8 -3 -15 -14 -15 -25 0 -11 -5
-21 -11 -23 -5 -2 -12 -12 -14 -23 -2 -11 -4 -22 -5 -25 -1 -3 -2 -8 -1 -12 0
-5 -4 -8 -10 -8 -6 0 -9 -6 -6 -14 3 -8 0 -16 -7 -19 -12 -5 -39 -76 -41 -107
-1 -8 -7 -14 -13 -12 -10 2 -10 -3 -2 -17 7 -15 6 -23 -5 -34 -8 -8 -11 -17
-8 -21 4 -3 0 -6 -8 -6 -11 0 -11 -2 1 -10 12 -7 12 -10 1 -10 -7 0 -11 -6 -7
-15 3 -8 1 -15 -4 -15 -6 0 -6 -9 0 -25 6 -16 6 -27 -2 -31 -7 -5 -8 -2 -3 7
5 8 4 10 0 6 -13 -11 -15 -38 -3 -31 7 5 9 -4 6 -24 -3 -22 -1 -29 9 -25 11 5
18 -14 14 -39 0 -5 5 -7 12 -5 6 1 11 -4 9 -11 -1 -8 2 -11 8 -7 5 3 10 1 10
-4 0 -6 6 -11 13 -11 22 0 16 -26 -6 -27 -11 -1 -23 -7 -27 -14 -5 -7 -14 -8
-21 -4 -8 5 -11 4 -6 0 4 -5 -11 -17 -33 -27 -22 -10 -40 -23 -40 -29 0 -6 -4
-8 -8 -5 -5 3 -18 -4 -30 -14 -12 -11 -26 -20 -32 -20 -6 0 -9 -4 -6 -9 3 -5
-6 -12 -20 -15 -15 -4 -24 -9 -21 -13 8 -7 -16 -32 -26 -26 -10 6 -38 -23 -30
-31 6 -6 -12 -10 -30 -7 -5 1 -6 -3 -2 -9 3 -5 -1 -13 -9 -16 -9 -3 -13 -11
-9 -17 4 -6 0 -8 -10 -4 -9 3 -16 3 -15 -1 3 -14 -14 -42 -23 -36 -5 3 -9 1
-9 -5 0 -5 -16 -26 -35 -45 -19 -20 -35 -41 -35 -46 0 -6 -4 -10 -10 -10 -5 0
-10 -7 -10 -15 0 -9 -7 -18 -15 -21 -8 -4 -12 -10 -9 -15 3 -5 -2 -9 -11 -9
-9 0 -13 -4 -10 -10 3 -5 2 -10 -4 -10 -5 0 -13 -9 -16 -20 -4 -11 -11 -17
-17 -14 -6 4 -8 2 -4 -4 3 -6 -1 -18 -10 -26 -8 -9 -12 -16 -8 -16 4 0 -1 -7
-12 -15 -10 -8 -14 -15 -9 -15 6 0 6 -3 -1 -8 -6 -4 -24 -29 -39 -57 -16 -27
-35 -54 -43 -58 -11 -7 -11 -11 0 -25 7 -9 9 -13 3 -10 -5 3 -16 0 -23 -8 -7
-8 -10 -14 -6 -14 3 0 1 -7 -6 -15 -7 -8 -9 -15 -4 -15 5 0 1 -5 -8 -11 -10
-5 -18 -16 -18 -24 0 -7 -6 -16 -12 -18 -9 -4 -9 -6 1 -6 11 -1 10 -5 -5 -17
-10 -8 -12 -12 -4 -8 13 7 13 5 1 -9 -7 -9 -16 -15 -20 -12 -4 2 -7 -6 -7 -18
1 -12 -4 -21 -11 -20 -7 2 -10 -4 -7 -12 4 -8 1 -15 -5 -15 -6 0 -8 -6 -5 -14
3 -7 -2 -20 -10 -29 -8 -8 -12 -17 -9 -21 4 -3 1 -6 -6 -6 -7 0 -10 -4 -7 -8
3 -5 -4 -23 -15 -41 -11 -18 -17 -36 -14 -42 4 -5 1 -9 -4 -9 -6 0 -10 -6 -8
-12 1 -7 -4 -12 -12 -10 -12 3 -12 0 -1 -12 10 -13 10 -16 -2 -16 -8 0 -15
-12 -16 -27 -1 -16 -7 -30 -12 -31 -6 -2 -8 -8 -4 -13 3 -5 0 -9 -7 -9 -7 0
-9 -3 -6 -7 4 -3 2 -12 -4 -20 -6 -7 -8 -13 -3 -13 4 0 -1 -7 -12 -16 -10 -8
-13 -13 -7 -9 9 4 11 1 7 -9 -3 -9 -11 -13 -18 -9 -6 4 -5 -1 3 -11 12 -15 12
-17 0 -14 -8 2 -13 -3 -12 -9 2 -7 -1 -13 -6 -13 -4 0 -7 -12 -5 -26 1 -15 -3
-28 -12 -31 -8 -3 -14 -11 -14 -18 0 -7 -6 -16 -12 -18 -10 -4 -10 -6 0 -6 10
-1 10 -5 -2 -17 -9 -8 -16 -24 -16 -35 0 -10 -4 -19 -10 -19 -5 0 -10 -9 -10
-21 0 -11 -4 -17 -10 -14 -6 3 -7 -1 -4 -9 4 -10 1 -16 -7 -16 -7 0 -9 -3 -6
-7 4 -3 1 -13 -6 -21 -10 -13 -9 -15 3 -8 8 4 6 0 -4 -8 -11 -9 -16 -16 -10
-16 5 0 2 -5 -6 -10 -11 -7 -11 -10 -2 -10 10 0 10 -3 0 -14 -7 -8 -17 -11
-23 -8 -5 3 -4 -2 4 -11 9 -12 10 -17 2 -17 -7 0 -10 -4 -6 -9 3 -6 -3 -14
-12 -20 -10 -6 -15 -11 -11 -11 11 0 -13 -60 -24 -60 -5 0 -7 -4 -3 -9 3 -6
-4 -26 -15 -45 -11 -20 -17 -36 -13 -36 3 0 -2 -10 -13 -22 -12 -13 -13 -18
-4 -13 8 5 3 -7 -13 -27 -15 -21 -23 -39 -17 -43 6 -4 5 -11 -3 -19 -6 -8 -15
-12 -18 -10 -3 2 -6 -3 -6 -11 0 -8 5 -11 11 -8 6 4 3 -3 -6 -14 -10 -11 -18
-30 -18 -42 0 -12 -4 -19 -10 -16 -5 3 -10 -3 -10 -14 0 -12 -4 -21 -9 -21 -4
0 -7 -11 -6 -25 2 -14 0 -23 -5 -20 -31 19 -9 -100 34 -184 35 -68 105 -163
116 -156 5 3 10 1 12 -5 1 -5 14 -11 28 -14 14 -2 27 -5 30 -6 3 -2 8 -2 13
-1 4 0 7 -3 7 -8 0 -5 9 -7 20 -4 11 3 20 1 20 -4 0 -9 6 -11 50 -15 11 -1 20
-6 20 -10 0 -4 8 -8 18 -8 10 0 24 -6 31 -12 11 -11 12 -10 6 2 -8 13 -7 13 8
1 9 -7 17 -10 17 -6 0 4 10 1 23 -6 12 -8 29 -13 37 -13 8 1 20 2 26 3 6 0 10
14 9 31 -1 16 2 27 7 24 4 -3 8 6 8 20 0 14 5 26 12 26 6 0 8 3 5 7 -4 3 0 17
9 31 9 13 11 21 5 18 -7 -5 -9 -1 -5 8 3 9 11 16 17 16 7 0 7 4 -1 12 -9 9 -7
17 11 37 12 13 16 21 10 17 -18 -10 -16 9 2 24 8 7 15 23 15 36 0 13 5 24 10
24 6 0 10 5 10 11 0 5 -5 7 -12 3 -7 -5 -8 -3 -2 7 4 8 9 20 11 28 1 8 8 18
15 22 10 7 10 9 -2 9 -12 0 -13 2 -1 9 8 5 10 14 6 21 -6 9 -4 11 5 5 10 -6
12 -4 7 7 -3 9 -1 20 3 24 5 5 11 18 13 29 5 25 16 55 28 78 6 12 5 17 -3 17
-8 0 -9 3 -3 8 17 12 36 52 30 62 -4 6 -2 10 4 10 6 0 8 6 5 14 -3 8 0 17 5
21 6 3 9 11 6 16 -4 5 -2 9 3 9 5 0 8 10 7 23 -1 12 5 32 12 44 8 12 11 28 7
34 -4 8 -3 9 4 5 7 -4 12 -2 12 3 0 20 16 11 17 -9 1 -11 -4 -20 -10 -20 -8 0
-7 -3 2 -9 9 -6 10 -11 2 -15 -8 -5 -8 -13 0 -28 8 -15 8 -19 0 -14 -11 7 -15
-5 -11 -38 1 -10 -4 -23 -12 -28 -10 -7 -10 -11 -1 -15 10 -3 10 -10 2 -25 -6
-11 -8 -22 -5 -25 3 -3 -2 -12 -12 -20 -9 -8 -11 -12 -4 -8 15 8 15 0 2 -26
-8 -14 -7 -19 2 -19 9 0 9 -3 -2 -10 -8 -5 -11 -12 -7 -16 4 -4 -1 -13 -11
-20 -10 -8 -12 -13 -4 -14 6 0 12 -5 12 -11 0 -5 -5 -7 -11 -3 -7 4 -7 -1 1
-16 9 -18 9 -21 0 -15 -9 6 -11 -2 -8 -27 2 -25 0 -34 -8 -31 -8 3 -11 -6 -9
-26 1 -18 -2 -31 -9 -31 -6 0 -4 -5 4 -10 11 -7 11 -10 2 -10 -9 0 -12 -10 -8
-30 2 -17 0 -28 -5 -24 -5 3 -9 -9 -9 -25 0 -18 -5 -31 -12 -31 -10 0 -9 -3 1
-9 9 -6 10 -10 2 -16 -9 -5 -9 -10 0 -21 10 -12 10 -15 -1 -12 -10 2 -14 -7
-13 -29 0 -18 -5 -33 -11 -33 -6 0 -4 -5 4 -10 12 -8 12 -10 1 -10 -10 0 -11
-3 -2 -14 9 -11 9 -16 1 -21 -7 -4 -10 -20 -8 -36 3 -17 0 -29 -6 -29 -6 0 -5
-4 3 -9 8 -5 9 -11 3 -15 -11 -7 -3 -56 10 -56 5 0 6 -4 3 -10 -3 -5 1 -22 9
-38 8 -16 12 -32 9 -36 -4 -3 -1 -6 6 -6 7 0 9 -4 6 -10 -3 -5 -1 -10 5 -10 7
0 10 -6 7 -14 -3 -8 1 -20 9 -26 8 -7 14 -19 14 -26 0 -8 5 -14 11 -14 5 0 8
-4 4 -9 -3 -5 0 -15 7 -23 18 -19 50 -78 43 -78 -3 0 4 -10 15 -22 11 -12 18
-28 16 -35 -3 -7 2 -13 10 -13 11 0 14 -6 10 -16 -3 -8 -2 -12 4 -9 9 6 14 -8
11 -27 0 -5 4 -8 10 -8 5 0 7 -4 4 -10 -3 -5 1 -10 9 -10 9 0 15 -3 14 -7 -4
-14 13 -53 23 -53 5 0 9 -9 9 -19 0 -11 5 -21 11 -23 5 -2 11 -11 13 -20 1
-10 6 -21 11 -25 4 -4 5 -1 1 7 -4 8 -1 7 8 -3 8 -11 13 -27 11 -37 -3 -13 1
-17 11 -13 9 3 14 -2 14 -16 0 -12 7 -24 15 -27 8 -4 12 -10 9 -15 -3 -5 0 -9
6 -9 6 0 8 -4 5 -10 -3 -5 -1 -10 6 -10 7 0 10 -3 6 -6 -3 -4 4 -15 16 -26 12
-11 16 -16 9 -13 -11 6 -11 3 -1 -13 7 -12 17 -18 23 -15 5 4 7 -1 3 -10 -4
-12 -1 -17 11 -17 13 0 14 -2 4 -9 -11 -6 -10 -10 3 -15 10 -4 15 -12 11 -22
-3 -8 -2 -12 4 -9 6 3 10 1 10 -5 0 -6 7 -18 16 -27 8 -9 12 -23 9 -31 -3 -9
-3 -13 1 -9 4 4 14 -2 21 -13 12 -17 12 -24 2 -36 -10 -12 -9 -13 7 -8 15 5
16 4 4 -4 -9 -7 -19 -7 -26 -2 -6 6 -14 7 -17 3 -4 -3 -7 -1 -7 5 0 6 -7 9
-15 6 -8 -4 -15 -1 -15 6 0 6 -5 8 -10 5 -6 -3 -10 -1 -10 5 0 6 -3 9 -7 7 -5
-2 -18 6 -31 19 -12 13 -19 24 -15 24 4 0 0 6 -9 13 -12 10 -198 286 -301 447
-12 19 -59 85 -105 148 -45 62 -76 110 -70 106 7 -5 -14 23 -46 61 -66 78
-131 118 -256 156 -41 13 -77 24 -80 24 -3 0 -41 20 -85 43 -87 45 -121 73
-175 142 -36 45 -41 55 -78 140 -11 25 -48 106 -82 180 -34 74 -97 214 -139
310 -74 165 -90 201 -142 318 -12 26 -69 155 -126 287 -58 132 -111 254 -118
270 -8 17 -73 167 -144 334 -72 168 -141 320 -153 338 -24 36 -221 171 -1628
1117 -179 121 -334 227 -346 237 -11 11 -23 19 -27 19 -4 0 -53 31 -110 70
-56 38 -109 75 -117 80 -8 6 -67 45 -130 88 -63 43 -248 167 -410 277 -162
109 -369 249 -460 310 -91 61 -289 195 -441 298 l-277 186 9 -37z m6250 -8609
c13 -16 12 -17 -3 -4 -10 7 -18 15 -18 17 0 8 8 3 21 -13z"/>
<path d="M11904 11911 c-45 -31 -144 -100 -220 -154 -253 -180 -629 -446 -644
-457 -58 -41 -1159 -822 -1175 -834 -11 -8 -119 -84 -240 -170 -121 -85 -224
-158 -230 -163 -5 -5 -55 -40 -110 -78 -55 -38 -118 -83 -141 -100 -23 -16
-50 -36 -60 -43 -10 -7 -120 -84 -244 -172 -124 -88 -232 -164 -240 -170 -15
-10 -308 -218 -343 -242 -10 -7 -29 -29 -42 -48 -20 -30 -176 -407 -250 -605
-12 -33 -55 -143 -94 -245 -83 -213 -95 -256 -75 -264 8 -3 14 -12 14 -21 0
-8 5 -15 10 -15 6 0 10 -5 10 -11 0 -5 -4 -8 -9 -5 -5 3 -12 -1 -15 -10 -3 -8
-2 -12 4 -9 14 9 50 -32 44 -50 -4 -8 -1 -15 5 -15 6 0 11 -7 11 -16 0 -14 -2
-15 -17 -3 -16 13 -17 12 -4 -3 7 -10 10 -18 6 -18 -4 0 -2 -6 4 -13 6 -8 8
-16 5 -19 -2 -3 3 -8 12 -12 15 -6 15 -4 1 17 -13 20 -13 24 -1 24 8 0 12 -2
9 -5 -2 -3 0 -12 5 -21 10 -20 1 -36 -19 -36 -8 0 -16 -7 -18 -15 -3 -9 -1
-11 4 -4 12 16 51 12 51 -6 0 -8 3 -25 5 -37 3 -13 1 -26 -5 -29 -6 -4 -8 -3
-5 3 3 5 0 10 -8 10 -12 0 -12 -4 2 -20 10 -10 17 -21 16 -23 -8 -12 -1 -24
10 -19 6 4 3 -1 -7 -9 -11 -9 -15 -16 -9 -16 12 0 -37 -226 -60 -281 -8 -19
-23 -54 -33 -78 -34 -81 -66 -115 -155 -161 -46 -23 -84 -41 -84 -40 0 0 -7
-2 -16 -5 -11 -4 -19 -23 -24 -52 -10 -70 -4 -464 8 -529 3 -16 9 -51 12 -79
10 -90 84 -255 115 -255 5 0 66 -58 136 -129 70 -71 156 -151 192 -178 35 -26
67 -56 71 -66 6 -15 20 -8 104 48 200 132 419 337 515 480 51 75 53 80 32 85
-11 3 -172 5 -355 4 -184 0 -334 1 -332 2 1 1 65 40 142 86 276 167 520 328
735 487 88 65 356 277 386 306 12 11 52 47 90 80 151 132 376 368 487 510 26
33 52 65 57 72 50 61 230 375 230 401 0 8 -89 11 -327 11 -463 0 -420 -1 -403
15 8 8 69 43 135 77 269 139 542 306 730 447 200 150 463 394 595 552 30 36
58 67 61 70 21 18 189 256 254 360 42 69 85 136 93 150 64 101 269 514 345
695 53 128 151 414 222 650 43 142 128 466 123 470 -2 1 -40 -23 -84 -54z
m-3974 -4090 c0 -6 -4 -12 -8 -15 -5 -3 -9 1 -9 9 0 8 4 15 9 15 4 0 8 -4 8
-9z"/>
<path d="M7833 8061 c0 -11 5 -18 9 -15 4 3 5 11 1 19 -7 21 -12 19 -10 -4z"/>
<path d="M7887 7880 c10 -11 19 -20 21 -20 1 0 -2 9 -8 20 -6 11 -15 20 -20
20 -6 0 -2 -9 7 -20z"/>
<path d="M3178 5699 c-6 -4 -20 -6 -30 -4 -10 2 -18 -1 -18 -6 0 -6 -4 -8 -9
-5 -4 3 -27 -3 -49 -14 -23 -11 -46 -20 -52 -20 -5 0 -10 -4 -10 -10 0 -5 -6
-10 -14 -10 -7 0 -22 -11 -32 -25 -10 -14 -24 -25 -31 -25 -7 0 -12 -4 -10 -8
1 -4 -10 -20 -25 -34 -15 -14 -25 -28 -21 -31 3 -4 1 -7 -5 -7 -7 0 -12 -7
-12 -16 0 -8 -4 -13 -9 -10 -5 3 -14 -8 -20 -24 -5 -17 -15 -30 -21 -30 -6 0
-8 -4 -5 -10 3 -5 1 -10 -5 -10 -6 0 -8 -4 -5 -10 3 -5 1 -10 -4 -10 -6 0 -11
-7 -11 -16 0 -9 -9 -27 -20 -41 -11 -14 -17 -29 -15 -33 3 -5 1 -11 -5 -15 -5
-3 -10 -15 -10 -25 0 -10 -5 -20 -11 -22 -6 -2 -12 -18 -12 -35 -1 -17 -6 -29
-11 -26 -5 3 -7 -6 -4 -20 3 -15 1 -24 -3 -21 -8 5 -14 -17 -10 -38 0 -5 -3
-8 -9 -8 -5 0 -7 -7 -4 -15 4 -8 2 -21 -3 -28 -5 -6 -9 -24 -8 -39 0 -16 -4
-28 -10 -28 -5 0 -3 -5 5 -10 12 -7 12 -10 1 -10 -7 0 -11 -6 -7 -15 3 -8 0
-15 -6 -15 -9 0 -9 -3 -1 -11 12 -12 6 -42 -6 -35 -3 2 -6 -27 -6 -66 0 -38
-4 -72 -8 -75 -4 -3 -2 -12 5 -21 10 -12 10 -14 1 -8 -7 4 -13 4 -14 -1 0 -4
-2 -18 -3 -30 -1 -12 1 -20 6 -17 4 3 8 -2 8 -10 0 -9 -4 -16 -10 -16 -5 0
-10 -5 -10 -11 0 -5 4 -8 9 -4 5 3 13 1 16 -5 4 -6 1 -9 -7 -8 -14 3 -16 -42
-3 -77 5 -14 4 -16 -3 -7 -6 9 -9 -54 -9 -175 0 -124 3 -193 11 -202 7 -10 7
-13 0 -8 -7 4 -10 -8 -10 -33 0 -21 4 -36 8 -34 4 3 8 0 8 -5 0 -6 -5 -11 -11
-11 -8 0 -7 -6 2 -17 8 -9 10 -14 4 -11 -6 4 -10 -11 -10 -37 0 -24 3 -41 8
-38 4 2 4 9 1 15 -4 7 -2 8 4 4 9 -5 9 -13 2 -26 -13 -24 -13 -33 1 -24 8 5 9
2 1 -12 -7 -12 -7 -25 -1 -36 7 -12 6 -18 -2 -18 -8 0 -7 -5 2 -17 12 -14 12
-16 0 -8 -10 5 -12 4 -7 -4 15 -23 17 -84 4 -93 -9 -5 -7 -8 7 -8 17 0 18 -2
5 -11 -11 -8 -12 -12 -3 -16 9 -3 10 -10 4 -22 -5 -9 -6 -22 -2 -29 4 -7 6
-30 5 -52 -1 -28 2 -38 10 -33 6 4 5 -1 -3 -10 -10 -13 -10 -17 -1 -17 10 0
10 -3 1 -14 -9 -11 -9 -15 1 -18 11 -4 11 -8 0 -20 -7 -10 -9 -19 -4 -22 14
-9 20 -65 8 -70 -7 -3 -6 -5 2 -5 10 -1 10 -6 1 -22 -6 -12 -7 -19 -1 -15 5 3
13 -1 16 -10 3 -8 2 -12 -4 -9 -6 3 -10 -3 -10 -14 0 -10 5 -21 11 -23 9 -3 9
-9 0 -25 -8 -16 -8 -24 0 -29 6 -3 9 -19 7 -35 -3 -17 0 -29 6 -29 6 0 5 -4
-2 -9 -11 -7 -10 -9 3 -14 13 -5 14 -11 5 -27 -8 -15 -8 -20 1 -20 8 0 8 -4
-1 -15 -7 -9 -8 -15 -2 -15 6 0 9 -8 7 -17 -1 -10 2 -24 8 -31 8 -10 7 -16 -4
-23 -11 -7 -11 -9 0 -9 11 0 11 -3 0 -17 -12 -14 -12 -16 0 -8 11 6 13 3 9
-13 -4 -12 -2 -22 3 -22 6 0 5 -9 -2 -21 -6 -12 -7 -19 -2 -16 9 6 14 -25 14
-76 0 -9 5 -15 10 -11 12 7 7 -19 -6 -28 -6 -5 -6 -8 2 -8 6 0 12 -12 12 -27
2 -52 4 -63 14 -63 5 0 4 -7 -3 -15 -9 -10 -9 -15 -1 -15 6 0 10 -3 10 -7 -5
-31 3 -73 12 -67 8 4 8 0 0 -15 -10 -17 -9 -20 5 -14 14 5 15 3 5 -15 -7 -12
-8 -22 -2 -22 5 0 7 -9 4 -20 -4 -14 0 -20 11 -20 9 0 19 -7 23 -16 5 -13 7
-13 14 -2 7 10 9 8 9 -6 0 -11 3 -17 6 -13 4 3 19 0 35 -9 16 -8 29 -11 29 -7
0 4 6 -1 13 -12 8 -10 19 -15 25 -11 7 4 12 3 12 -2 0 -9 37 -25 53 -23 4 1 7
-4 7 -10 0 -6 7 -8 16 -5 8 3 13 2 9 -3 -3 -5 8 -12 25 -16 17 -4 28 -10 26
-14 -3 -4 7 -8 22 -9 14 -1 29 -7 33 -13 4 -7 11 -9 17 -5 5 3 12 -1 16 -9 3
-8 12 -15 20 -15 8 0 39 -13 69 -29 31 -16 58 -27 61 -23 3 3 6 -1 6 -9 0 -11
2 -11 10 1 8 13 10 13 10 -1 0 -9 7 -20 16 -23 8 -3 13 -2 10 2 -3 5 19 -3 48
-17 29 -14 51 -30 48 -36 -3 -5 1 -4 10 3 13 10 17 10 22 -3 3 -9 10 -13 16
-10 5 3 10 1 10 -4 0 -6 9 -11 20 -11 11 0 20 -5 20 -12 0 -6 3 -8 7 -5 3 4
12 2 20 -4 7 -6 13 -8 13 -5 0 4 7 0 16 -9 9 -9 21 -14 28 -12 6 2 17 -2 24
-10 8 -7 18 -11 23 -8 5 4 9 1 9 -5 0 -6 4 -9 9 -6 5 4 11 0 14 -6 3 -9 9 -7
20 7 10 13 12 24 6 32 -7 7 -6 14 1 18 7 4 6 13 -4 27 -8 11 -12 26 -10 33 3
7 1 16 -4 19 -6 3 -8 15 -5 26 3 13 0 20 -8 20 -11 0 -11 2 1 10 12 8 12 10 1
10 -11 0 -11 3 0 17 8 10 9 14 2 10 -6 -4 -14 -3 -18 3 -3 5 0 10 7 10 8 0 9
3 3 8 -12 8 -16 24 -19 69 -2 18 -8 39 -16 47 -7 9 -8 16 -3 16 5 0 9 9 9 20
0 11 -6 20 -12 20 -13 0 -13 17 0 39 6 8 5 12 0 8 -5 -3 -14 6 -21 19 -6 13
-7 22 -3 19 5 -3 8 4 7 15 -1 11 -5 20 -10 20 -4 0 -6 4 -3 9 4 5 0 12 -6 14
-10 4 -10 6 0 6 9 1 10 6 2 20 -7 14 -6 21 3 24 7 4 6 6 -5 6 -11 1 -15 9 -14
31 1 17 -1 30 -5 30 -4 0 -6 9 -4 20 2 11 0 22 -6 25 -5 4 -5 14 2 27 8 15 8
19 0 14 -10 -7 -16 26 -12 62 1 6 -3 12 -9 12 -7 0 -7 6 1 21 6 12 7 19 1 15
-5 -3 -12 1 -16 9 -3 8 -1 15 5 15 6 0 7 6 2 13 -4 6 -6 19 -5 29 2 9 -2 19
-8 23 -8 5 -8 11 1 21 6 8 7 14 2 14 -5 0 -9 18 -9 40 0 22 4 40 9 40 4 0 6 9
2 20 -5 15 -3 18 8 14 10 -4 13 3 12 25 -1 17 2 28 6 25 5 -3 11 7 15 21 3 14
10 25 16 25 5 0 6 5 3 10 -3 6 -1 10 4 10 6 0 10 3 9 8 -4 13 13 52 23 52 5 0
8 3 7 8 -3 11 14 56 24 63 5 3 10 15 11 26 0 12 6 19 14 16 8 -3 11 2 8 16 -2
12 1 21 6 21 6 0 7 5 4 10 -3 6 -1 10 6 10 7 0 10 3 6 6 -3 4 1 13 9 21 8 9
13 22 10 29 -3 8 -1 14 3 14 5 0 12 7 15 16 4 10 2 13 -7 8 -9 -5 -9 -4 0 6 9
10 7 17 -8 33 -11 12 -17 27 -15 34 3 7 -1 13 -9 13 -8 0 -15 7 -15 16 0 8 -4
13 -9 9 -6 -3 -8 3 -6 14 2 11 -3 22 -11 25 -8 3 -14 12 -14 21 0 8 -5 15 -11
15 -5 0 -7 5 -4 10 3 6 0 13 -9 16 -8 3 -17 12 -20 20 -4 10 -2 13 7 8 6 -4 4
2 -5 13 -10 11 -18 24 -18 30 0 6 -7 14 -16 17 -8 3 -12 10 -9 16 3 5 2 10 -4
10 -5 0 -8 9 -6 20 2 11 0 18 -6 15 -5 -4 -9 -1 -9 5 0 6 -4 8 -10 5 -6 -4 -7
1 -3 11 4 11 3 15 -5 10 -7 -4 -10 1 -7 14 2 11 -1 20 -6 20 -6 0 -7 5 -4 10
3 6 -1 10 -9 10 -9 0 -16 5 -16 11 0 5 4 7 10 4 6 -3 7 1 4 9 -3 9 -11 16 -17
16 -6 0 -7 3 -4 7 4 3 -1 15 -10 26 -10 11 -12 17 -4 12 9 -5 7 1 -4 19 -10
14 -13 26 -9 26 5 0 5 4 -1 8 -14 10 -39 56 -26 48 6 -4 4 6 -4 21 -8 15 -15
34 -15 41 0 6 -4 12 -9 12 -5 0 -8 11 -7 25 2 13 -1 22 -5 19 -8 -5 -13 13
-12 44 1 6 -3 12 -8 12 -5 0 -9 11 -9 25 0 14 -5 25 -12 25 -6 0 -8 3 -5 7 4
3 1 13 -6 21 -9 13 -9 14 1 8 6 -4 12 -2 12 3 0 6 -5 11 -11 11 -6 0 -9 7 -6
15 4 8 2 17 -3 20 -6 4 -10 19 -10 36 0 16 -5 29 -12 29 -9 0 -8 4 2 10 8 5
10 10 4 10 -11 0 -13 7 -16 60 -1 17 -6 30 -11 30 -6 0 -7 3 -4 7 4 3 1 13 -6
21 -10 13 -9 14 2 7 11 -6 12 -2 6 21 -5 16 -8 44 -8 62 -1 17 -4 32 -9 32 -5
0 -4 9 2 20 6 11 7 20 2 20 -4 0 -8 9 -9 20 -1 13 2 18 10 13 9 -5 9 -3 1 8
-15 20 -15 59 -1 59 7 0 4 5 -6 11 -12 7 -15 15 -8 27 4 9 7 27 5 40 -2 13 1
22 9 22 8 0 8 3 -2 9 -13 8 -13 12 0 27 9 11 9 15 2 10 -16 -9 -16 -1 -3 25 8
13 7 19 0 19 -6 0 -8 5 -3 13 12 19 12 37 1 37 -5 0 -3 6 5 14 9 9 12 26 9 42
-4 20 -2 25 8 19 9 -6 9 -3 0 15 -10 18 -9 21 1 15 8 -6 11 -4 6 7 -3 9 1 27
8 42 10 19 11 24 2 19 -9 -5 -9 -3 0 9 7 8 10 18 6 21 -3 4 -1 7 5 7 7 0 12 5
12 11 0 5 -6 7 -12 4 -7 -4 -3 2 9 13 14 12 18 23 12 29 -6 6 -2 16 11 28 11
10 20 24 20 32 0 7 5 13 11 13 6 0 8 7 5 16 -3 8 -2 12 4 9 6 -3 13 1 16 9 3
9 11 13 18 9 6 -4 4 2 -4 12 -8 10 -10 16 -3 12 6 -4 14 -3 17 1 3 5 -13 18
-35 30 -22 12 -37 16 -33 9 4 -7 -3 -3 -16 8 -14 12 -20 14 -15 5 6 -12 5 -12
-5 -3 -7 6 -19 9 -28 6 -8 -4 -13 -2 -9 3 6 11 -148 13 -165 3z"/>
<path d="M5315 3719 c-4 -11 -11 -16 -18 -12 -7 4 -6 -1 2 -10 9 -12 10 -17 2
-17 -7 0 -9 -4 -6 -10 3 -5 1 -10 -5 -10 -6 0 -8 -5 -4 -12 4 -6 0 -16 -8 -22
-19 -15 -32 -49 -15 -41 6 4 4 0 -7 -9 -10 -8 -16 -18 -13 -23 6 -9 -18 -34
-26 -27 -2 3 -3 -7 -2 -20 2 -14 0 -24 -3 -23 -4 1 -9 -2 -11 -8 -3 -5 -11
-16 -18 -23 -7 -8 -11 -17 -8 -22 3 -4 -2 -10 -10 -14 -8 -3 -15 -12 -15 -20
0 -8 -7 -19 -16 -24 -8 -5 -16 -16 -18 -25 -1 -9 -6 -20 -11 -24 -4 -5 -5 -1
0 7 4 8 -3 4 -17 -10 -13 -14 -23 -28 -21 -32 2 -5 -1 -8 -7 -8 -6 0 -8 -4 -5
-10 5 -9 -7 -14 -26 -12 -4 1 -6 -6 -5 -16 0 -9 -5 -16 -12 -14 -6 1 -12 -1
-11 -5 3 -20 -14 -52 -25 -47 -6 3 -1 -3 11 -14 12 -11 23 -26 25 -33 5 -20
22 -38 32 -31 5 3 6 0 3 -5 -4 -6 4 -27 18 -47 14 -20 25 -41 25 -47 0 -12 22
-52 34 -60 5 -4 5 -12 2 -18 -4 -6 -2 -11 4 -11 6 0 8 -4 5 -10 -3 -5 -1 -10
4 -10 6 0 11 -9 11 -19 0 -11 4 -21 9 -23 5 -1 11 -14 13 -28 1 -14 9 -31 16
-38 7 -8 10 -17 7 -22 -3 -5 1 -11 7 -13 10 -4 10 -6 0 -6 -10 -1 -9 -5 3 -17
9 -9 14 -22 11 -30 -3 -7 0 -14 5 -16 5 -2 11 -13 12 -25 0 -13 7 -25 14 -27
7 -3 10 -16 7 -30 -2 -15 0 -26 6 -26 5 0 10 -10 10 -23 0 -13 6 -29 13 -36
10 -11 9 -12 -3 -6 -10 6 -8 1 4 -13 12 -13 14 -22 7 -22 -9 0 -8 -6 3 -22 12
-17 13 -25 3 -37 -9 -12 -9 -13 1 -7 8 5 12 0 12 -13 0 -12 5 -21 11 -21 8 0
9 -4 0 -13 -6 -8 -7 -17 -3 -21 7 -7 8 -11 11 -37 0 -5 7 -7 14 -3 8 5 8 2 -2
-9 -7 -9 -9 -17 -4 -17 5 0 9 -15 9 -32 1 -41 6 -61 18 -70 6 -4 4 -13 -4 -23
-11 -13 -11 -15 0 -13 7 2 15 -3 18 -11 3 -10 0 -11 -9 -5 -12 6 -12 5 -1 -8
7 -9 12 -22 11 -30 -4 -32 1 -49 14 -42 8 5 8 2 -2 -9 -11 -14 -11 -17 0 -17
12 0 12 -2 0 -9 -10 -7 -11 -9 0 -13 7 -2 13 -14 14 -26 1 -12 -3 -19 -9 -15
-6 3 -5 0 2 -8 6 -7 12 -17 12 -22 0 -4 -6 -5 -12 -1 -9 5 -8 2 1 -9 18 -22
24 -80 7 -70 -6 4 -5 -1 3 -10 7 -9 11 -24 7 -32 -3 -8 0 -15 6 -15 7 0 6 -5
-2 -15 -9 -10 -9 -15 -1 -15 6 0 11 -5 11 -11 0 -5 -4 -7 -10 -4 -6 3 -7 -1
-4 -9 3 -9 11 -13 18 -9 6 4 6 0 -2 -9 -10 -13 -10 -17 0 -21 10 -4 10 -6 -1
-6 -11 -1 -11 -4 -1 -16 8 -10 9 -15 2 -15 -6 0 -9 -6 -7 -12 11 -31 12 -88 1
-88 -7 0 -7 -3 -1 -8 14 -10 14 -52 1 -52 -6 0 -4 -5 4 -10 8 -5 10 -10 3 -10
-20 0 -1 -44 33 -76 18 -18 30 -34 27 -38 -4 -3 -1 -6 6 -6 7 0 19 -7 27 -15
9 -8 12 -15 8 -15 -4 0 3 -8 14 -19 12 -10 19 -21 15 -25 -3 -3 -1 -6 5 -6 12
0 42 -55 42 -77 0 -8 5 -11 10 -8 6 4 10 -7 10 -24 0 -17 5 -31 12 -31 6 0 8
-3 5 -7 -4 -3 -1 -13 6 -21 9 -13 9 -14 0 -8 -21 12 -15 -1 13 -29 14 -14 30
-23 35 -20 5 4 9 1 9 -5 0 -6 5 -8 10 -5 6 3 10 1 10 -4 0 -6 3 -10 8 -10 18
4 72 -15 72 -24 0 -6 3 -8 6 -4 4 3 19 0 35 -9 16 -8 29 -12 29 -8 0 4 7 1 15
-6 8 -7 15 -9 15 -4 0 4 5 3 12 -4 7 -7 20 -12 30 -12 10 0 18 -4 18 -8 0 -4
12 -9 27 -10 15 -1 30 -7 34 -13 3 -6 9 -10 13 -9 3 0 24 -5 46 -11 31 -9 43
-10 52 -1 8 8 9 12 1 12 -6 0 -10 14 -9 31 1 17 -4 38 -12 45 -8 9 -9 14 -2
14 11 0 10 37 -3 57 -4 6 -1 14 5 16 10 4 10 7 0 15 -8 5 -13 12 -13 16 1 3 1
9 0 14 -1 4 -1 16 0 27 1 12 -5 34 -13 50 -8 16 -12 33 -9 38 3 6 1 7 -5 3
-11 -6 -17 13 -13 37 1 5 -3 6 -9 2 -5 -3 -10 1 -10 9 0 8 -8 20 -17 25 -10 6
-15 11 -11 11 4 0 0 9 -9 19 -9 11 -20 18 -25 15 -7 -5 -12 10 -9 29 0 4 -4 7
-9 7 -15 0 -72 60 -89 93 -8 15 -19 27 -24 27 -5 0 -5 5 1 13 7 8 7 18 2 27
-5 9 -5 19 2 27 7 9 7 13 -2 13 -7 0 -10 7 -7 15 4 8 1 17 -5 21 -7 5 -6 11 6
19 15 12 15 13 -1 19 -15 6 -15 8 -3 16 10 6 11 10 3 10 -7 0 -10 7 -6 16 3 9
0 20 -8 25 -8 5 -9 9 -3 9 12 0 12 49 0 68 -4 7 -5 16 -1 21 3 5 1 12 -3 15
-5 3 -7 17 -4 31 3 16 0 25 -8 25 -10 0 -10 3 -1 14 8 10 9 16 1 21 -7 4 -7
13 1 27 8 15 8 19 0 14 -12 -8 -14 1 -13 47 0 15 -5 27 -11 27 -7 0 -6 4 3 10
10 6 11 10 3 10 -7 0 -13 7 -13 16 0 9 5 13 13 9 6 -4 5 -1 -3 7 -9 7 -15 20
-15 28 1 8 -3 21 -8 28 -6 8 -5 12 3 12 9 0 7 7 -5 20 -10 11 -13 20 -7 20 5
0 8 9 5 20 -3 11 -10 20 -17 20 -6 0 -4 5 4 10 10 6 11 10 3 10 -8 0 -13 12
-13 28 0 16 -3 32 -7 36 -5 4 -9 20 -9 34 -3 49 -4 53 -12 48 -7 -4 -11 16
-13 71 -1 13 -5 20 -10 17 -8 -4 -14 33 -10 59 0 4 -4 7 -9 7 -6 0 -10 8 -10
18 0 10 -5 23 -12 30 -9 9 -9 12 3 12 10 0 11 2 2 8 -7 5 -14 20 -15 34 -1 15
-6 24 -10 22 -7 -5 -12 20 -11 54 1 6 -3 12 -8 12 -5 0 -6 7 -3 15 4 10 2 13
-8 10 -9 -4 -15 0 -15 9 0 8 5 12 11 9 6 -4 5 0 -2 9 -7 9 -15 29 -18 45 -3
15 -9 30 -15 31 -5 2 -7 8 -3 13 3 5 1 9 -3 9 -5 0 -10 10 -10 22 -1 13 -7 24
-12 26 -5 2 -7 10 -4 18 3 8 0 14 -6 14 -6 0 -8 7 -5 15 4 8 1 15 -6 15 -7 0
-10 7 -6 15 3 8 1 15 -5 15 -6 0 -7 5 -4 10 3 6 2 10 -2 10 -5 0 -9 9 -10 19
-1 13 7 21 25 24 15 3 34 7 42 10 8 2 30 8 48 12 17 4 32 12 32 17 0 5 4 7 9
4 13 -8 42 4 36 15 -3 4 4 6 15 4 11 -2 20 1 20 7 0 5 7 8 15 4 8 -3 15 -1 15
4 0 5 11 12 25 16 14 3 25 10 25 16 0 5 5 6 10 3 6 -3 13 1 16 9 3 9 10 13 15
10 5 -3 9 0 9 7 0 7 3 10 6 6 10 -9 96 81 91 96 -2 6 -8 12 -13 12 -5 0 -15 4
-21 8 -7 5 -17 5 -23 2 -5 -3 -10 -2 -10 4 0 6 -7 8 -15 4 -10 -3 -15 0 -13 8
2 9 -5 14 -19 13 -13 0 -23 5 -23 12 0 7 -8 11 -17 10 -10 -2 -29 5 -42 15
-13 10 -27 16 -32 13 -5 -3 -9 0 -9 5 0 6 -7 11 -16 11 -8 0 -13 4 -10 8 2 4
-5 9 -17 9 -12 1 -23 7 -25 13 -2 5 -8 8 -13 4 -5 -3 -12 2 -15 10 -3 9 -15
16 -26 16 -10 0 -16 5 -13 10 3 6 -3 10 -15 10 -11 0 -23 7 -26 15 -4 8 -9 13
-13 10 -4 -2 -14 5 -21 16 -8 10 -20 19 -28 19 -7 0 -15 7 -18 15 -4 8 -10 12
-15 9 -5 -3 -9 3 -9 12 0 10 -3 14 -6 11 -4 -3 -19 7 -34 23 -16 17 -33 30
-40 30 -6 0 -9 4 -6 9 3 5 -1 11 -9 14 -8 4 -16 -2 -20 -14z"/>
</g>
</svg>
